M48
; DRILL file {KiCad 8.0.2-8.0.2-0~ubuntu22.04.1} date 2024-05-29T00:58:51-0400
; FORMAT={-:-/ absolute / inch / decimal}
; #@! TF.CreationDate,2024-05-29T00:58:51-04:00
; #@! TF.GenerationSoftware,Kicad,Pcbnew,8.0.2-8.0.2-0~ubuntu22.04.1
; #@! TF.FileFunction,Plated,1,2,PTH
FMAT,2
INCH
; #@! TA.AperFunction,Plated,PTH,ViaDrill
T1C0.0118
; #@! TA.AperFunction,Plated,PTH,ComponentDrill
T2C0.0276
; #@! TA.AperFunction,Plated,PTH,ComponentDrill
T3C0.0354
; #@! TA.AperFunction,Plated,PTH,ComponentDrill
T4C0.0394
%
G90
G05
T1
X5.0492Y-2.8839
X5.0591Y-2.313
X5.0591Y-2.5098
X5.0591Y-2.5689
X5.0591Y-2.7165
X5.0591Y-3.1791
X5.128Y-2.5689
X5.1476Y-2.313
X5.1575Y-2.7756
X5.1673Y-2.9626
X5.2559Y-2.2736
X5.3642Y-2.2736
X5.374Y-3.0315
X5.4035Y-2.6476
X5.4626Y-2.7657
X5.7874Y-2.7756
T2
X5.215Y-3.248
X5.315Y-3.248
T3
X5.6004Y-2.9094
X5.7004Y-2.9094
T4
X4.9409Y-2.3622
X4.9409Y-2.4622
X4.9409Y-2.7165
X4.9409Y-2.8165
X4.9409Y-3.0709
X4.9409Y-3.1709
X5.0969Y-2.1654
X5.1969Y-2.1654
X5.8868Y-2.9429
X5.8868Y-3.0429
X5.8957Y-2.4114
X5.8957Y-2.5114
X5.8957Y-2.6114
M30
