%TF.GenerationSoftware,KiCad,Pcbnew,8.0.2-8.0.2-0~ubuntu22.04.1*%
%TF.CreationDate,2024-05-29T00:58:49-04:00*%
%TF.ProjectId,candel24h_v1,63616e64-656c-4323-9468-5f76312e6b69,rev?*%
%TF.SameCoordinates,Original*%
%TF.FileFunction,Drillmap*%
%TF.FilePolarity,Positive*%
%FSLAX45Y45*%
G04 Gerber Fmt 4.5, Leading zero omitted, Abs format (unit mm)*
G04 Created by KiCad (PCBNEW 8.0.2-8.0.2-0~ubuntu22.04.1) date 2024-05-29 00:58:49*
%MOMM*%
%LPD*%
G01*
G04 APERTURE LIST*
%ADD10C,0.050000*%
%ADD11C,0.200000*%
G04 APERTURE END LIST*
D10*
X12225000Y-5200000D02*
X15425000Y-5200000D01*
X15425000Y-8400000D01*
X12225000Y-8400000D01*
X12225000Y-5200000D01*
D11*
X12483277Y-8713984D02*
X12483277Y-8513984D01*
X12483277Y-8513984D02*
X12530896Y-8513984D01*
X12530896Y-8513984D02*
X12559467Y-8523508D01*
X12559467Y-8523508D02*
X12578515Y-8542555D01*
X12578515Y-8542555D02*
X12588039Y-8561603D01*
X12588039Y-8561603D02*
X12597562Y-8599698D01*
X12597562Y-8599698D02*
X12597562Y-8628270D01*
X12597562Y-8628270D02*
X12588039Y-8666365D01*
X12588039Y-8666365D02*
X12578515Y-8685412D01*
X12578515Y-8685412D02*
X12559467Y-8704460D01*
X12559467Y-8704460D02*
X12530896Y-8713984D01*
X12530896Y-8713984D02*
X12483277Y-8713984D01*
X12683277Y-8713984D02*
X12683277Y-8580650D01*
X12683277Y-8618746D02*
X12692801Y-8599698D01*
X12692801Y-8599698D02*
X12702324Y-8590174D01*
X12702324Y-8590174D02*
X12721372Y-8580650D01*
X12721372Y-8580650D02*
X12740420Y-8580650D01*
X12807086Y-8713984D02*
X12807086Y-8580650D01*
X12807086Y-8513984D02*
X12797562Y-8523508D01*
X12797562Y-8523508D02*
X12807086Y-8533031D01*
X12807086Y-8533031D02*
X12816610Y-8523508D01*
X12816610Y-8523508D02*
X12807086Y-8513984D01*
X12807086Y-8513984D02*
X12807086Y-8533031D01*
X12930896Y-8713984D02*
X12911848Y-8704460D01*
X12911848Y-8704460D02*
X12902324Y-8685412D01*
X12902324Y-8685412D02*
X12902324Y-8513984D01*
X13035658Y-8713984D02*
X13016610Y-8704460D01*
X13016610Y-8704460D02*
X13007086Y-8685412D01*
X13007086Y-8685412D02*
X13007086Y-8513984D01*
X13264229Y-8713984D02*
X13264229Y-8513984D01*
X13264229Y-8513984D02*
X13330896Y-8656841D01*
X13330896Y-8656841D02*
X13397562Y-8513984D01*
X13397562Y-8513984D02*
X13397562Y-8713984D01*
X13578515Y-8713984D02*
X13578515Y-8609222D01*
X13578515Y-8609222D02*
X13568991Y-8590174D01*
X13568991Y-8590174D02*
X13549943Y-8580650D01*
X13549943Y-8580650D02*
X13511848Y-8580650D01*
X13511848Y-8580650D02*
X13492801Y-8590174D01*
X13578515Y-8704460D02*
X13559467Y-8713984D01*
X13559467Y-8713984D02*
X13511848Y-8713984D01*
X13511848Y-8713984D02*
X13492801Y-8704460D01*
X13492801Y-8704460D02*
X13483277Y-8685412D01*
X13483277Y-8685412D02*
X13483277Y-8666365D01*
X13483277Y-8666365D02*
X13492801Y-8647317D01*
X13492801Y-8647317D02*
X13511848Y-8637793D01*
X13511848Y-8637793D02*
X13559467Y-8637793D01*
X13559467Y-8637793D02*
X13578515Y-8628270D01*
X13673753Y-8580650D02*
X13673753Y-8780650D01*
X13673753Y-8590174D02*
X13692801Y-8580650D01*
X13692801Y-8580650D02*
X13730896Y-8580650D01*
X13730896Y-8580650D02*
X13749943Y-8590174D01*
X13749943Y-8590174D02*
X13759467Y-8599698D01*
X13759467Y-8599698D02*
X13768991Y-8618746D01*
X13768991Y-8618746D02*
X13768991Y-8675889D01*
X13768991Y-8675889D02*
X13759467Y-8694936D01*
X13759467Y-8694936D02*
X13749943Y-8704460D01*
X13749943Y-8704460D02*
X13730896Y-8713984D01*
X13730896Y-8713984D02*
X13692801Y-8713984D01*
X13692801Y-8713984D02*
X13673753Y-8704460D01*
X13854705Y-8694936D02*
X13864229Y-8704460D01*
X13864229Y-8704460D02*
X13854705Y-8713984D01*
X13854705Y-8713984D02*
X13845182Y-8704460D01*
X13845182Y-8704460D02*
X13854705Y-8694936D01*
X13854705Y-8694936D02*
X13854705Y-8713984D01*
X13854705Y-8590174D02*
X13864229Y-8599698D01*
X13864229Y-8599698D02*
X13854705Y-8609222D01*
X13854705Y-8609222D02*
X13845182Y-8599698D01*
X13845182Y-8599698D02*
X13854705Y-8590174D01*
X13854705Y-8590174D02*
X13854705Y-8609222D01*
M02*
