%TF.GenerationSoftware,KiCad,Pcbnew,8.0.2-8.0.2-0~ubuntu22.04.1*%
%TF.CreationDate,2024-05-29T00:58:49-04:00*%
%TF.ProjectId,candel24h_v1,63616e64-656c-4323-9468-5f76312e6b69,rev?*%
%TF.SameCoordinates,Original*%
%TF.FileFunction,Drillmap*%
%TF.FilePolarity,Positive*%
%FSLAX45Y45*%
G04 Gerber Fmt 4.5, Leading zero omitted, Abs format (unit mm)*
G04 Created by KiCad (PCBNEW 8.0.2-8.0.2-0~ubuntu22.04.1) date 2024-05-29 00:58:49*
%MOMM*%
%LPD*%
G01*
G04 APERTURE LIST*
%ADD10C,0.050000*%
%ADD11C,0.200000*%
%ADD12C,0.100000*%
G04 APERTURE END LIST*
D10*
X12225000Y-5200000D02*
X15425000Y-5200000D01*
X15425000Y-8400000D01*
X12225000Y-8400000D01*
X12225000Y-5200000D01*
D11*
D12*
X12810000Y-7310000D02*
X12840000Y-7340000D01*
X12840000Y-7310000D02*
X12810000Y-7340000D01*
X12835000Y-5860000D02*
X12865000Y-5890000D01*
X12865000Y-5860000D02*
X12835000Y-5890000D01*
X12835000Y-6360000D02*
X12865000Y-6390000D01*
X12865000Y-6360000D02*
X12835000Y-6390000D01*
X12835000Y-6510000D02*
X12865000Y-6540000D01*
X12865000Y-6510000D02*
X12835000Y-6540000D01*
X12835000Y-6885000D02*
X12865000Y-6915000D01*
X12865000Y-6885000D02*
X12835000Y-6915000D01*
X12835000Y-8060000D02*
X12865000Y-8090000D01*
X12865000Y-8060000D02*
X12835000Y-8090000D01*
X13010000Y-6510000D02*
X13040000Y-6540000D01*
X13040000Y-6510000D02*
X13010000Y-6540000D01*
X13060000Y-5860000D02*
X13090000Y-5890000D01*
X13090000Y-5860000D02*
X13060000Y-5890000D01*
X13085000Y-7035000D02*
X13115000Y-7065000D01*
X13115000Y-7035000D02*
X13085000Y-7065000D01*
X13110000Y-7510000D02*
X13140000Y-7540000D01*
X13140000Y-7510000D02*
X13110000Y-7540000D01*
X13335000Y-5760000D02*
X13365000Y-5790000D01*
X13365000Y-5760000D02*
X13335000Y-5790000D01*
X13610000Y-5760000D02*
X13640000Y-5790000D01*
X13640000Y-5760000D02*
X13610000Y-5790000D01*
X13635000Y-7685000D02*
X13665000Y-7715000D01*
X13665000Y-7685000D02*
X13635000Y-7715000D01*
X13710000Y-6710000D02*
X13740000Y-6740000D01*
X13740000Y-6710000D02*
X13710000Y-6740000D01*
X13860000Y-7010000D02*
X13890000Y-7040000D01*
X13890000Y-7010000D02*
X13860000Y-7040000D01*
X14685000Y-7035000D02*
X14715000Y-7065000D01*
X14715000Y-7035000D02*
X14685000Y-7065000D01*
X13281000Y-8250000D02*
G75*
G02*
X13211000Y-8250000I-35000J0D01*
G01*
X13211000Y-8250000D02*
G75*
G02*
X13281000Y-8250000I35000J0D01*
G01*
X13535000Y-8250000D02*
G75*
G02*
X13465000Y-8250000I-35000J0D01*
G01*
X13465000Y-8250000D02*
G75*
G02*
X13535000Y-8250000I35000J0D01*
G01*
X14225000Y-7345000D02*
X14225000Y-7435000D01*
X14180000Y-7390000D02*
X14270000Y-7390000D01*
X14479000Y-7345000D02*
X14479000Y-7435000D01*
X14434000Y-7390000D02*
X14524000Y-7390000D01*
X12585356Y-6035356D02*
X12585356Y-5964644D01*
X12514644Y-5964644D01*
X12514644Y-6035356D01*
X12585356Y-6035356D01*
X12585356Y-6289356D02*
X12585356Y-6218644D01*
X12514644Y-6218644D01*
X12514644Y-6289356D01*
X12585356Y-6289356D01*
X12585356Y-6935356D02*
X12585356Y-6864644D01*
X12514644Y-6864644D01*
X12514644Y-6935356D01*
X12585356Y-6935356D01*
X12585356Y-7189356D02*
X12585356Y-7118644D01*
X12514644Y-7118644D01*
X12514644Y-7189356D01*
X12585356Y-7189356D01*
X12585356Y-7835356D02*
X12585356Y-7764644D01*
X12514644Y-7764644D01*
X12514644Y-7835356D01*
X12585356Y-7835356D01*
X12585356Y-8089356D02*
X12585356Y-8018644D01*
X12514644Y-8018644D01*
X12514644Y-8089356D01*
X12585356Y-8089356D01*
X12981356Y-5535356D02*
X12981356Y-5464644D01*
X12910644Y-5464644D01*
X12910644Y-5535356D01*
X12981356Y-5535356D01*
X13235356Y-5535356D02*
X13235356Y-5464644D01*
X13164644Y-5464644D01*
X13164644Y-5535356D01*
X13235356Y-5535356D01*
X14987856Y-7510356D02*
X14987856Y-7439644D01*
X14917144Y-7439644D01*
X14917144Y-7510356D01*
X14987856Y-7510356D01*
X14987856Y-7764356D02*
X14987856Y-7693644D01*
X14917144Y-7693644D01*
X14917144Y-7764356D01*
X14987856Y-7764356D01*
X15010356Y-6160356D02*
X15010356Y-6089644D01*
X14939644Y-6089644D01*
X14939644Y-6160356D01*
X15010356Y-6160356D01*
X15010356Y-6414356D02*
X15010356Y-6343644D01*
X14939644Y-6343644D01*
X14939644Y-6414356D01*
X15010356Y-6414356D01*
X15010356Y-6668356D02*
X15010356Y-6597644D01*
X14939644Y-6597644D01*
X14939644Y-6668356D01*
X15010356Y-6668356D01*
D11*
X12483277Y-8713984D02*
X12483277Y-8513984D01*
X12483277Y-8513984D02*
X12530896Y-8513984D01*
X12530896Y-8513984D02*
X12559467Y-8523508D01*
X12559467Y-8523508D02*
X12578515Y-8542555D01*
X12578515Y-8542555D02*
X12588039Y-8561603D01*
X12588039Y-8561603D02*
X12597562Y-8599698D01*
X12597562Y-8599698D02*
X12597562Y-8628270D01*
X12597562Y-8628270D02*
X12588039Y-8666365D01*
X12588039Y-8666365D02*
X12578515Y-8685412D01*
X12578515Y-8685412D02*
X12559467Y-8704460D01*
X12559467Y-8704460D02*
X12530896Y-8713984D01*
X12530896Y-8713984D02*
X12483277Y-8713984D01*
X12683277Y-8713984D02*
X12683277Y-8580650D01*
X12683277Y-8618746D02*
X12692801Y-8599698D01*
X12692801Y-8599698D02*
X12702324Y-8590174D01*
X12702324Y-8590174D02*
X12721372Y-8580650D01*
X12721372Y-8580650D02*
X12740420Y-8580650D01*
X12807086Y-8713984D02*
X12807086Y-8580650D01*
X12807086Y-8513984D02*
X12797562Y-8523508D01*
X12797562Y-8523508D02*
X12807086Y-8533031D01*
X12807086Y-8533031D02*
X12816610Y-8523508D01*
X12816610Y-8523508D02*
X12807086Y-8513984D01*
X12807086Y-8513984D02*
X12807086Y-8533031D01*
X12930896Y-8713984D02*
X12911848Y-8704460D01*
X12911848Y-8704460D02*
X12902324Y-8685412D01*
X12902324Y-8685412D02*
X12902324Y-8513984D01*
X13035658Y-8713984D02*
X13016610Y-8704460D01*
X13016610Y-8704460D02*
X13007086Y-8685412D01*
X13007086Y-8685412D02*
X13007086Y-8513984D01*
X13264229Y-8713984D02*
X13264229Y-8513984D01*
X13264229Y-8513984D02*
X13330896Y-8656841D01*
X13330896Y-8656841D02*
X13397562Y-8513984D01*
X13397562Y-8513984D02*
X13397562Y-8713984D01*
X13578515Y-8713984D02*
X13578515Y-8609222D01*
X13578515Y-8609222D02*
X13568991Y-8590174D01*
X13568991Y-8590174D02*
X13549943Y-8580650D01*
X13549943Y-8580650D02*
X13511848Y-8580650D01*
X13511848Y-8580650D02*
X13492801Y-8590174D01*
X13578515Y-8704460D02*
X13559467Y-8713984D01*
X13559467Y-8713984D02*
X13511848Y-8713984D01*
X13511848Y-8713984D02*
X13492801Y-8704460D01*
X13492801Y-8704460D02*
X13483277Y-8685412D01*
X13483277Y-8685412D02*
X13483277Y-8666365D01*
X13483277Y-8666365D02*
X13492801Y-8647317D01*
X13492801Y-8647317D02*
X13511848Y-8637793D01*
X13511848Y-8637793D02*
X13559467Y-8637793D01*
X13559467Y-8637793D02*
X13578515Y-8628270D01*
X13673753Y-8580650D02*
X13673753Y-8780650D01*
X13673753Y-8590174D02*
X13692801Y-8580650D01*
X13692801Y-8580650D02*
X13730896Y-8580650D01*
X13730896Y-8580650D02*
X13749943Y-8590174D01*
X13749943Y-8590174D02*
X13759467Y-8599698D01*
X13759467Y-8599698D02*
X13768991Y-8618746D01*
X13768991Y-8618746D02*
X13768991Y-8675889D01*
X13768991Y-8675889D02*
X13759467Y-8694936D01*
X13759467Y-8694936D02*
X13749943Y-8704460D01*
X13749943Y-8704460D02*
X13730896Y-8713984D01*
X13730896Y-8713984D02*
X13692801Y-8713984D01*
X13692801Y-8713984D02*
X13673753Y-8704460D01*
X13854705Y-8694936D02*
X13864229Y-8704460D01*
X13864229Y-8704460D02*
X13854705Y-8713984D01*
X13854705Y-8713984D02*
X13845182Y-8704460D01*
X13845182Y-8704460D02*
X13854705Y-8694936D01*
X13854705Y-8694936D02*
X13854705Y-8713984D01*
X13854705Y-8590174D02*
X13864229Y-8599698D01*
X13864229Y-8599698D02*
X13854705Y-8609222D01*
X13854705Y-8609222D02*
X13845182Y-8599698D01*
X13845182Y-8599698D02*
X13854705Y-8590174D01*
X13854705Y-8590174D02*
X13854705Y-8609222D01*
D12*
X12192500Y-9027500D02*
X12222500Y-9057500D01*
X12222500Y-9027500D02*
X12192500Y-9057500D01*
D11*
X12521372Y-8933984D02*
X12540420Y-8933984D01*
X12540420Y-8933984D02*
X12559467Y-8943508D01*
X12559467Y-8943508D02*
X12568991Y-8953031D01*
X12568991Y-8953031D02*
X12578515Y-8972079D01*
X12578515Y-8972079D02*
X12588039Y-9010174D01*
X12588039Y-9010174D02*
X12588039Y-9057793D01*
X12588039Y-9057793D02*
X12578515Y-9095889D01*
X12578515Y-9095889D02*
X12568991Y-9114936D01*
X12568991Y-9114936D02*
X12559467Y-9124460D01*
X12559467Y-9124460D02*
X12540420Y-9133984D01*
X12540420Y-9133984D02*
X12521372Y-9133984D01*
X12521372Y-9133984D02*
X12502324Y-9124460D01*
X12502324Y-9124460D02*
X12492801Y-9114936D01*
X12492801Y-9114936D02*
X12483277Y-9095889D01*
X12483277Y-9095889D02*
X12473753Y-9057793D01*
X12473753Y-9057793D02*
X12473753Y-9010174D01*
X12473753Y-9010174D02*
X12483277Y-8972079D01*
X12483277Y-8972079D02*
X12492801Y-8953031D01*
X12492801Y-8953031D02*
X12502324Y-8943508D01*
X12502324Y-8943508D02*
X12521372Y-8933984D01*
X12673753Y-9114936D02*
X12683277Y-9124460D01*
X12683277Y-9124460D02*
X12673753Y-9133984D01*
X12673753Y-9133984D02*
X12664229Y-9124460D01*
X12664229Y-9124460D02*
X12673753Y-9114936D01*
X12673753Y-9114936D02*
X12673753Y-9133984D01*
X12749943Y-8933984D02*
X12873753Y-8933984D01*
X12873753Y-8933984D02*
X12807086Y-9010174D01*
X12807086Y-9010174D02*
X12835658Y-9010174D01*
X12835658Y-9010174D02*
X12854705Y-9019698D01*
X12854705Y-9019698D02*
X12864229Y-9029222D01*
X12864229Y-9029222D02*
X12873753Y-9048270D01*
X12873753Y-9048270D02*
X12873753Y-9095889D01*
X12873753Y-9095889D02*
X12864229Y-9114936D01*
X12864229Y-9114936D02*
X12854705Y-9124460D01*
X12854705Y-9124460D02*
X12835658Y-9133984D01*
X12835658Y-9133984D02*
X12778515Y-9133984D01*
X12778515Y-9133984D02*
X12759467Y-9124460D01*
X12759467Y-9124460D02*
X12749943Y-9114936D01*
X12997562Y-8933984D02*
X13016610Y-8933984D01*
X13016610Y-8933984D02*
X13035658Y-8943508D01*
X13035658Y-8943508D02*
X13045182Y-8953031D01*
X13045182Y-8953031D02*
X13054705Y-8972079D01*
X13054705Y-8972079D02*
X13064229Y-9010174D01*
X13064229Y-9010174D02*
X13064229Y-9057793D01*
X13064229Y-9057793D02*
X13054705Y-9095889D01*
X13054705Y-9095889D02*
X13045182Y-9114936D01*
X13045182Y-9114936D02*
X13035658Y-9124460D01*
X13035658Y-9124460D02*
X13016610Y-9133984D01*
X13016610Y-9133984D02*
X12997562Y-9133984D01*
X12997562Y-9133984D02*
X12978515Y-9124460D01*
X12978515Y-9124460D02*
X12968991Y-9114936D01*
X12968991Y-9114936D02*
X12959467Y-9095889D01*
X12959467Y-9095889D02*
X12949943Y-9057793D01*
X12949943Y-9057793D02*
X12949943Y-9010174D01*
X12949943Y-9010174D02*
X12959467Y-8972079D01*
X12959467Y-8972079D02*
X12968991Y-8953031D01*
X12968991Y-8953031D02*
X12978515Y-8943508D01*
X12978515Y-8943508D02*
X12997562Y-8933984D01*
X13188039Y-8933984D02*
X13207086Y-8933984D01*
X13207086Y-8933984D02*
X13226134Y-8943508D01*
X13226134Y-8943508D02*
X13235658Y-8953031D01*
X13235658Y-8953031D02*
X13245182Y-8972079D01*
X13245182Y-8972079D02*
X13254705Y-9010174D01*
X13254705Y-9010174D02*
X13254705Y-9057793D01*
X13254705Y-9057793D02*
X13245182Y-9095889D01*
X13245182Y-9095889D02*
X13235658Y-9114936D01*
X13235658Y-9114936D02*
X13226134Y-9124460D01*
X13226134Y-9124460D02*
X13207086Y-9133984D01*
X13207086Y-9133984D02*
X13188039Y-9133984D01*
X13188039Y-9133984D02*
X13168991Y-9124460D01*
X13168991Y-9124460D02*
X13159467Y-9114936D01*
X13159467Y-9114936D02*
X13149943Y-9095889D01*
X13149943Y-9095889D02*
X13140420Y-9057793D01*
X13140420Y-9057793D02*
X13140420Y-9010174D01*
X13140420Y-9010174D02*
X13149943Y-8972079D01*
X13149943Y-8972079D02*
X13159467Y-8953031D01*
X13159467Y-8953031D02*
X13168991Y-8943508D01*
X13168991Y-8943508D02*
X13188039Y-8933984D01*
X13340420Y-9133984D02*
X13340420Y-9000650D01*
X13340420Y-9019698D02*
X13349943Y-9010174D01*
X13349943Y-9010174D02*
X13368991Y-9000650D01*
X13368991Y-9000650D02*
X13397563Y-9000650D01*
X13397563Y-9000650D02*
X13416610Y-9010174D01*
X13416610Y-9010174D02*
X13426134Y-9029222D01*
X13426134Y-9029222D02*
X13426134Y-9133984D01*
X13426134Y-9029222D02*
X13435658Y-9010174D01*
X13435658Y-9010174D02*
X13454705Y-9000650D01*
X13454705Y-9000650D02*
X13483277Y-9000650D01*
X13483277Y-9000650D02*
X13502324Y-9010174D01*
X13502324Y-9010174D02*
X13511848Y-9029222D01*
X13511848Y-9029222D02*
X13511848Y-9133984D01*
X13607086Y-9133984D02*
X13607086Y-9000650D01*
X13607086Y-9019698D02*
X13616610Y-9010174D01*
X13616610Y-9010174D02*
X13635658Y-9000650D01*
X13635658Y-9000650D02*
X13664229Y-9000650D01*
X13664229Y-9000650D02*
X13683277Y-9010174D01*
X13683277Y-9010174D02*
X13692801Y-9029222D01*
X13692801Y-9029222D02*
X13692801Y-9133984D01*
X13692801Y-9029222D02*
X13702324Y-9010174D01*
X13702324Y-9010174D02*
X13721372Y-9000650D01*
X13721372Y-9000650D02*
X13749943Y-9000650D01*
X13749943Y-9000650D02*
X13768991Y-9010174D01*
X13768991Y-9010174D02*
X13778515Y-9029222D01*
X13778515Y-9029222D02*
X13778515Y-9133984D01*
X14168991Y-8924460D02*
X13997563Y-9181603D01*
X14426134Y-8933984D02*
X14445182Y-8933984D01*
X14445182Y-8933984D02*
X14464229Y-8943508D01*
X14464229Y-8943508D02*
X14473753Y-8953031D01*
X14473753Y-8953031D02*
X14483277Y-8972079D01*
X14483277Y-8972079D02*
X14492801Y-9010174D01*
X14492801Y-9010174D02*
X14492801Y-9057793D01*
X14492801Y-9057793D02*
X14483277Y-9095889D01*
X14483277Y-9095889D02*
X14473753Y-9114936D01*
X14473753Y-9114936D02*
X14464229Y-9124460D01*
X14464229Y-9124460D02*
X14445182Y-9133984D01*
X14445182Y-9133984D02*
X14426134Y-9133984D01*
X14426134Y-9133984D02*
X14407086Y-9124460D01*
X14407086Y-9124460D02*
X14397563Y-9114936D01*
X14397563Y-9114936D02*
X14388039Y-9095889D01*
X14388039Y-9095889D02*
X14378515Y-9057793D01*
X14378515Y-9057793D02*
X14378515Y-9010174D01*
X14378515Y-9010174D02*
X14388039Y-8972079D01*
X14388039Y-8972079D02*
X14397563Y-8953031D01*
X14397563Y-8953031D02*
X14407086Y-8943508D01*
X14407086Y-8943508D02*
X14426134Y-8933984D01*
X14578515Y-9114936D02*
X14588039Y-9124460D01*
X14588039Y-9124460D02*
X14578515Y-9133984D01*
X14578515Y-9133984D02*
X14568991Y-9124460D01*
X14568991Y-9124460D02*
X14578515Y-9114936D01*
X14578515Y-9114936D02*
X14578515Y-9133984D01*
X14711848Y-8933984D02*
X14730896Y-8933984D01*
X14730896Y-8933984D02*
X14749944Y-8943508D01*
X14749944Y-8943508D02*
X14759467Y-8953031D01*
X14759467Y-8953031D02*
X14768991Y-8972079D01*
X14768991Y-8972079D02*
X14778515Y-9010174D01*
X14778515Y-9010174D02*
X14778515Y-9057793D01*
X14778515Y-9057793D02*
X14768991Y-9095889D01*
X14768991Y-9095889D02*
X14759467Y-9114936D01*
X14759467Y-9114936D02*
X14749944Y-9124460D01*
X14749944Y-9124460D02*
X14730896Y-9133984D01*
X14730896Y-9133984D02*
X14711848Y-9133984D01*
X14711848Y-9133984D02*
X14692801Y-9124460D01*
X14692801Y-9124460D02*
X14683277Y-9114936D01*
X14683277Y-9114936D02*
X14673753Y-9095889D01*
X14673753Y-9095889D02*
X14664229Y-9057793D01*
X14664229Y-9057793D02*
X14664229Y-9010174D01*
X14664229Y-9010174D02*
X14673753Y-8972079D01*
X14673753Y-8972079D02*
X14683277Y-8953031D01*
X14683277Y-8953031D02*
X14692801Y-8943508D01*
X14692801Y-8943508D02*
X14711848Y-8933984D01*
X14968991Y-9133984D02*
X14854706Y-9133984D01*
X14911848Y-9133984D02*
X14911848Y-8933984D01*
X14911848Y-8933984D02*
X14892801Y-8962555D01*
X14892801Y-8962555D02*
X14873753Y-8981603D01*
X14873753Y-8981603D02*
X14854706Y-8991127D01*
X15159467Y-9133984D02*
X15045182Y-9133984D01*
X15102325Y-9133984D02*
X15102325Y-8933984D01*
X15102325Y-8933984D02*
X15083277Y-8962555D01*
X15083277Y-8962555D02*
X15064229Y-8981603D01*
X15064229Y-8981603D02*
X15045182Y-8991127D01*
X15273753Y-9019698D02*
X15254706Y-9010174D01*
X15254706Y-9010174D02*
X15245182Y-9000650D01*
X15245182Y-9000650D02*
X15235658Y-8981603D01*
X15235658Y-8981603D02*
X15235658Y-8972079D01*
X15235658Y-8972079D02*
X15245182Y-8953031D01*
X15245182Y-8953031D02*
X15254706Y-8943508D01*
X15254706Y-8943508D02*
X15273753Y-8933984D01*
X15273753Y-8933984D02*
X15311848Y-8933984D01*
X15311848Y-8933984D02*
X15330896Y-8943508D01*
X15330896Y-8943508D02*
X15340420Y-8953031D01*
X15340420Y-8953031D02*
X15349944Y-8972079D01*
X15349944Y-8972079D02*
X15349944Y-8981603D01*
X15349944Y-8981603D02*
X15340420Y-9000650D01*
X15340420Y-9000650D02*
X15330896Y-9010174D01*
X15330896Y-9010174D02*
X15311848Y-9019698D01*
X15311848Y-9019698D02*
X15273753Y-9019698D01*
X15273753Y-9019698D02*
X15254706Y-9029222D01*
X15254706Y-9029222D02*
X15245182Y-9038746D01*
X15245182Y-9038746D02*
X15235658Y-9057793D01*
X15235658Y-9057793D02*
X15235658Y-9095889D01*
X15235658Y-9095889D02*
X15245182Y-9114936D01*
X15245182Y-9114936D02*
X15254706Y-9124460D01*
X15254706Y-9124460D02*
X15273753Y-9133984D01*
X15273753Y-9133984D02*
X15311848Y-9133984D01*
X15311848Y-9133984D02*
X15330896Y-9124460D01*
X15330896Y-9124460D02*
X15340420Y-9114936D01*
X15340420Y-9114936D02*
X15349944Y-9095889D01*
X15349944Y-9095889D02*
X15349944Y-9057793D01*
X15349944Y-9057793D02*
X15340420Y-9038746D01*
X15340420Y-9038746D02*
X15330896Y-9029222D01*
X15330896Y-9029222D02*
X15311848Y-9019698D01*
X15426134Y-8933984D02*
X15426134Y-8972079D01*
X15502325Y-8933984D02*
X15502325Y-8972079D01*
X15797563Y-9210174D02*
X15788039Y-9200650D01*
X15788039Y-9200650D02*
X15768991Y-9172079D01*
X15768991Y-9172079D02*
X15759468Y-9153031D01*
X15759468Y-9153031D02*
X15749944Y-9124460D01*
X15749944Y-9124460D02*
X15740420Y-9076841D01*
X15740420Y-9076841D02*
X15740420Y-9038746D01*
X15740420Y-9038746D02*
X15749944Y-8991127D01*
X15749944Y-8991127D02*
X15759468Y-8962555D01*
X15759468Y-8962555D02*
X15768991Y-8943508D01*
X15768991Y-8943508D02*
X15788039Y-8914936D01*
X15788039Y-8914936D02*
X15797563Y-8905412D01*
X15978515Y-9133984D02*
X15864229Y-9133984D01*
X15921372Y-9133984D02*
X15921372Y-8933984D01*
X15921372Y-8933984D02*
X15902325Y-8962555D01*
X15902325Y-8962555D02*
X15883277Y-8981603D01*
X15883277Y-8981603D02*
X15864229Y-8991127D01*
X16149944Y-8933984D02*
X16111848Y-8933984D01*
X16111848Y-8933984D02*
X16092801Y-8943508D01*
X16092801Y-8943508D02*
X16083277Y-8953031D01*
X16083277Y-8953031D02*
X16064229Y-8981603D01*
X16064229Y-8981603D02*
X16054706Y-9019698D01*
X16054706Y-9019698D02*
X16054706Y-9095889D01*
X16054706Y-9095889D02*
X16064229Y-9114936D01*
X16064229Y-9114936D02*
X16073753Y-9124460D01*
X16073753Y-9124460D02*
X16092801Y-9133984D01*
X16092801Y-9133984D02*
X16130896Y-9133984D01*
X16130896Y-9133984D02*
X16149944Y-9124460D01*
X16149944Y-9124460D02*
X16159468Y-9114936D01*
X16159468Y-9114936D02*
X16168991Y-9095889D01*
X16168991Y-9095889D02*
X16168991Y-9048270D01*
X16168991Y-9048270D02*
X16159468Y-9029222D01*
X16159468Y-9029222D02*
X16149944Y-9019698D01*
X16149944Y-9019698D02*
X16130896Y-9010174D01*
X16130896Y-9010174D02*
X16092801Y-9010174D01*
X16092801Y-9010174D02*
X16073753Y-9019698D01*
X16073753Y-9019698D02*
X16064229Y-9029222D01*
X16064229Y-9029222D02*
X16054706Y-9048270D01*
X16407087Y-9133984D02*
X16407087Y-8933984D01*
X16492801Y-9133984D02*
X16492801Y-9029222D01*
X16492801Y-9029222D02*
X16483277Y-9010174D01*
X16483277Y-9010174D02*
X16464230Y-9000650D01*
X16464230Y-9000650D02*
X16435658Y-9000650D01*
X16435658Y-9000650D02*
X16416610Y-9010174D01*
X16416610Y-9010174D02*
X16407087Y-9019698D01*
X16616610Y-9133984D02*
X16597563Y-9124460D01*
X16597563Y-9124460D02*
X16588039Y-9114936D01*
X16588039Y-9114936D02*
X16578515Y-9095889D01*
X16578515Y-9095889D02*
X16578515Y-9038746D01*
X16578515Y-9038746D02*
X16588039Y-9019698D01*
X16588039Y-9019698D02*
X16597563Y-9010174D01*
X16597563Y-9010174D02*
X16616610Y-9000650D01*
X16616610Y-9000650D02*
X16645182Y-9000650D01*
X16645182Y-9000650D02*
X16664230Y-9010174D01*
X16664230Y-9010174D02*
X16673753Y-9019698D01*
X16673753Y-9019698D02*
X16683277Y-9038746D01*
X16683277Y-9038746D02*
X16683277Y-9095889D01*
X16683277Y-9095889D02*
X16673753Y-9114936D01*
X16673753Y-9114936D02*
X16664230Y-9124460D01*
X16664230Y-9124460D02*
X16645182Y-9133984D01*
X16645182Y-9133984D02*
X16616610Y-9133984D01*
X16797563Y-9133984D02*
X16778515Y-9124460D01*
X16778515Y-9124460D02*
X16768991Y-9105412D01*
X16768991Y-9105412D02*
X16768991Y-8933984D01*
X16949944Y-9124460D02*
X16930896Y-9133984D01*
X16930896Y-9133984D02*
X16892801Y-9133984D01*
X16892801Y-9133984D02*
X16873753Y-9124460D01*
X16873753Y-9124460D02*
X16864230Y-9105412D01*
X16864230Y-9105412D02*
X16864230Y-9029222D01*
X16864230Y-9029222D02*
X16873753Y-9010174D01*
X16873753Y-9010174D02*
X16892801Y-9000650D01*
X16892801Y-9000650D02*
X16930896Y-9000650D01*
X16930896Y-9000650D02*
X16949944Y-9010174D01*
X16949944Y-9010174D02*
X16959468Y-9029222D01*
X16959468Y-9029222D02*
X16959468Y-9048270D01*
X16959468Y-9048270D02*
X16864230Y-9067317D01*
X17035658Y-9124460D02*
X17054706Y-9133984D01*
X17054706Y-9133984D02*
X17092801Y-9133984D01*
X17092801Y-9133984D02*
X17111849Y-9124460D01*
X17111849Y-9124460D02*
X17121373Y-9105412D01*
X17121373Y-9105412D02*
X17121373Y-9095889D01*
X17121373Y-9095889D02*
X17111849Y-9076841D01*
X17111849Y-9076841D02*
X17092801Y-9067317D01*
X17092801Y-9067317D02*
X17064230Y-9067317D01*
X17064230Y-9067317D02*
X17045182Y-9057793D01*
X17045182Y-9057793D02*
X17035658Y-9038746D01*
X17035658Y-9038746D02*
X17035658Y-9029222D01*
X17035658Y-9029222D02*
X17045182Y-9010174D01*
X17045182Y-9010174D02*
X17064230Y-9000650D01*
X17064230Y-9000650D02*
X17092801Y-9000650D01*
X17092801Y-9000650D02*
X17111849Y-9010174D01*
X17188039Y-9210174D02*
X17197563Y-9200650D01*
X17197563Y-9200650D02*
X17216611Y-9172079D01*
X17216611Y-9172079D02*
X17226134Y-9153031D01*
X17226134Y-9153031D02*
X17235658Y-9124460D01*
X17235658Y-9124460D02*
X17245182Y-9076841D01*
X17245182Y-9076841D02*
X17245182Y-9038746D01*
X17245182Y-9038746D02*
X17235658Y-8991127D01*
X17235658Y-8991127D02*
X17226134Y-8962555D01*
X17226134Y-8962555D02*
X17216611Y-8943508D01*
X17216611Y-8943508D02*
X17197563Y-8914936D01*
X17197563Y-8914936D02*
X17188039Y-8905412D01*
D12*
X12222500Y-9306500D02*
G75*
G02*
X12152500Y-9306500I-35000J0D01*
G01*
X12152500Y-9306500D02*
G75*
G02*
X12222500Y-9306500I35000J0D01*
G01*
D11*
X12521372Y-9197984D02*
X12540420Y-9197984D01*
X12540420Y-9197984D02*
X12559467Y-9207508D01*
X12559467Y-9207508D02*
X12568991Y-9217031D01*
X12568991Y-9217031D02*
X12578515Y-9236079D01*
X12578515Y-9236079D02*
X12588039Y-9274174D01*
X12588039Y-9274174D02*
X12588039Y-9321793D01*
X12588039Y-9321793D02*
X12578515Y-9359889D01*
X12578515Y-9359889D02*
X12568991Y-9378936D01*
X12568991Y-9378936D02*
X12559467Y-9388460D01*
X12559467Y-9388460D02*
X12540420Y-9397984D01*
X12540420Y-9397984D02*
X12521372Y-9397984D01*
X12521372Y-9397984D02*
X12502324Y-9388460D01*
X12502324Y-9388460D02*
X12492801Y-9378936D01*
X12492801Y-9378936D02*
X12483277Y-9359889D01*
X12483277Y-9359889D02*
X12473753Y-9321793D01*
X12473753Y-9321793D02*
X12473753Y-9274174D01*
X12473753Y-9274174D02*
X12483277Y-9236079D01*
X12483277Y-9236079D02*
X12492801Y-9217031D01*
X12492801Y-9217031D02*
X12502324Y-9207508D01*
X12502324Y-9207508D02*
X12521372Y-9197984D01*
X12673753Y-9378936D02*
X12683277Y-9388460D01*
X12683277Y-9388460D02*
X12673753Y-9397984D01*
X12673753Y-9397984D02*
X12664229Y-9388460D01*
X12664229Y-9388460D02*
X12673753Y-9378936D01*
X12673753Y-9378936D02*
X12673753Y-9397984D01*
X12749943Y-9197984D02*
X12883277Y-9197984D01*
X12883277Y-9197984D02*
X12797562Y-9397984D01*
X12997562Y-9197984D02*
X13016610Y-9197984D01*
X13016610Y-9197984D02*
X13035658Y-9207508D01*
X13035658Y-9207508D02*
X13045182Y-9217031D01*
X13045182Y-9217031D02*
X13054705Y-9236079D01*
X13054705Y-9236079D02*
X13064229Y-9274174D01*
X13064229Y-9274174D02*
X13064229Y-9321793D01*
X13064229Y-9321793D02*
X13054705Y-9359889D01*
X13054705Y-9359889D02*
X13045182Y-9378936D01*
X13045182Y-9378936D02*
X13035658Y-9388460D01*
X13035658Y-9388460D02*
X13016610Y-9397984D01*
X13016610Y-9397984D02*
X12997562Y-9397984D01*
X12997562Y-9397984D02*
X12978515Y-9388460D01*
X12978515Y-9388460D02*
X12968991Y-9378936D01*
X12968991Y-9378936D02*
X12959467Y-9359889D01*
X12959467Y-9359889D02*
X12949943Y-9321793D01*
X12949943Y-9321793D02*
X12949943Y-9274174D01*
X12949943Y-9274174D02*
X12959467Y-9236079D01*
X12959467Y-9236079D02*
X12968991Y-9217031D01*
X12968991Y-9217031D02*
X12978515Y-9207508D01*
X12978515Y-9207508D02*
X12997562Y-9197984D01*
X13188039Y-9197984D02*
X13207086Y-9197984D01*
X13207086Y-9197984D02*
X13226134Y-9207508D01*
X13226134Y-9207508D02*
X13235658Y-9217031D01*
X13235658Y-9217031D02*
X13245182Y-9236079D01*
X13245182Y-9236079D02*
X13254705Y-9274174D01*
X13254705Y-9274174D02*
X13254705Y-9321793D01*
X13254705Y-9321793D02*
X13245182Y-9359889D01*
X13245182Y-9359889D02*
X13235658Y-9378936D01*
X13235658Y-9378936D02*
X13226134Y-9388460D01*
X13226134Y-9388460D02*
X13207086Y-9397984D01*
X13207086Y-9397984D02*
X13188039Y-9397984D01*
X13188039Y-9397984D02*
X13168991Y-9388460D01*
X13168991Y-9388460D02*
X13159467Y-9378936D01*
X13159467Y-9378936D02*
X13149943Y-9359889D01*
X13149943Y-9359889D02*
X13140420Y-9321793D01*
X13140420Y-9321793D02*
X13140420Y-9274174D01*
X13140420Y-9274174D02*
X13149943Y-9236079D01*
X13149943Y-9236079D02*
X13159467Y-9217031D01*
X13159467Y-9217031D02*
X13168991Y-9207508D01*
X13168991Y-9207508D02*
X13188039Y-9197984D01*
X13340420Y-9397984D02*
X13340420Y-9264650D01*
X13340420Y-9283698D02*
X13349943Y-9274174D01*
X13349943Y-9274174D02*
X13368991Y-9264650D01*
X13368991Y-9264650D02*
X13397563Y-9264650D01*
X13397563Y-9264650D02*
X13416610Y-9274174D01*
X13416610Y-9274174D02*
X13426134Y-9293222D01*
X13426134Y-9293222D02*
X13426134Y-9397984D01*
X13426134Y-9293222D02*
X13435658Y-9274174D01*
X13435658Y-9274174D02*
X13454705Y-9264650D01*
X13454705Y-9264650D02*
X13483277Y-9264650D01*
X13483277Y-9264650D02*
X13502324Y-9274174D01*
X13502324Y-9274174D02*
X13511848Y-9293222D01*
X13511848Y-9293222D02*
X13511848Y-9397984D01*
X13607086Y-9397984D02*
X13607086Y-9264650D01*
X13607086Y-9283698D02*
X13616610Y-9274174D01*
X13616610Y-9274174D02*
X13635658Y-9264650D01*
X13635658Y-9264650D02*
X13664229Y-9264650D01*
X13664229Y-9264650D02*
X13683277Y-9274174D01*
X13683277Y-9274174D02*
X13692801Y-9293222D01*
X13692801Y-9293222D02*
X13692801Y-9397984D01*
X13692801Y-9293222D02*
X13702324Y-9274174D01*
X13702324Y-9274174D02*
X13721372Y-9264650D01*
X13721372Y-9264650D02*
X13749943Y-9264650D01*
X13749943Y-9264650D02*
X13768991Y-9274174D01*
X13768991Y-9274174D02*
X13778515Y-9293222D01*
X13778515Y-9293222D02*
X13778515Y-9397984D01*
X14168991Y-9188460D02*
X13997563Y-9445603D01*
X14426134Y-9197984D02*
X14445182Y-9197984D01*
X14445182Y-9197984D02*
X14464229Y-9207508D01*
X14464229Y-9207508D02*
X14473753Y-9217031D01*
X14473753Y-9217031D02*
X14483277Y-9236079D01*
X14483277Y-9236079D02*
X14492801Y-9274174D01*
X14492801Y-9274174D02*
X14492801Y-9321793D01*
X14492801Y-9321793D02*
X14483277Y-9359889D01*
X14483277Y-9359889D02*
X14473753Y-9378936D01*
X14473753Y-9378936D02*
X14464229Y-9388460D01*
X14464229Y-9388460D02*
X14445182Y-9397984D01*
X14445182Y-9397984D02*
X14426134Y-9397984D01*
X14426134Y-9397984D02*
X14407086Y-9388460D01*
X14407086Y-9388460D02*
X14397563Y-9378936D01*
X14397563Y-9378936D02*
X14388039Y-9359889D01*
X14388039Y-9359889D02*
X14378515Y-9321793D01*
X14378515Y-9321793D02*
X14378515Y-9274174D01*
X14378515Y-9274174D02*
X14388039Y-9236079D01*
X14388039Y-9236079D02*
X14397563Y-9217031D01*
X14397563Y-9217031D02*
X14407086Y-9207508D01*
X14407086Y-9207508D02*
X14426134Y-9197984D01*
X14578515Y-9378936D02*
X14588039Y-9388460D01*
X14588039Y-9388460D02*
X14578515Y-9397984D01*
X14578515Y-9397984D02*
X14568991Y-9388460D01*
X14568991Y-9388460D02*
X14578515Y-9378936D01*
X14578515Y-9378936D02*
X14578515Y-9397984D01*
X14711848Y-9197984D02*
X14730896Y-9197984D01*
X14730896Y-9197984D02*
X14749944Y-9207508D01*
X14749944Y-9207508D02*
X14759467Y-9217031D01*
X14759467Y-9217031D02*
X14768991Y-9236079D01*
X14768991Y-9236079D02*
X14778515Y-9274174D01*
X14778515Y-9274174D02*
X14778515Y-9321793D01*
X14778515Y-9321793D02*
X14768991Y-9359889D01*
X14768991Y-9359889D02*
X14759467Y-9378936D01*
X14759467Y-9378936D02*
X14749944Y-9388460D01*
X14749944Y-9388460D02*
X14730896Y-9397984D01*
X14730896Y-9397984D02*
X14711848Y-9397984D01*
X14711848Y-9397984D02*
X14692801Y-9388460D01*
X14692801Y-9388460D02*
X14683277Y-9378936D01*
X14683277Y-9378936D02*
X14673753Y-9359889D01*
X14673753Y-9359889D02*
X14664229Y-9321793D01*
X14664229Y-9321793D02*
X14664229Y-9274174D01*
X14664229Y-9274174D02*
X14673753Y-9236079D01*
X14673753Y-9236079D02*
X14683277Y-9217031D01*
X14683277Y-9217031D02*
X14692801Y-9207508D01*
X14692801Y-9207508D02*
X14711848Y-9197984D01*
X14854706Y-9217031D02*
X14864229Y-9207508D01*
X14864229Y-9207508D02*
X14883277Y-9197984D01*
X14883277Y-9197984D02*
X14930896Y-9197984D01*
X14930896Y-9197984D02*
X14949944Y-9207508D01*
X14949944Y-9207508D02*
X14959467Y-9217031D01*
X14959467Y-9217031D02*
X14968991Y-9236079D01*
X14968991Y-9236079D02*
X14968991Y-9255127D01*
X14968991Y-9255127D02*
X14959467Y-9283698D01*
X14959467Y-9283698D02*
X14845182Y-9397984D01*
X14845182Y-9397984D02*
X14968991Y-9397984D01*
X15035658Y-9197984D02*
X15168991Y-9197984D01*
X15168991Y-9197984D02*
X15083277Y-9397984D01*
X15330896Y-9197984D02*
X15292801Y-9197984D01*
X15292801Y-9197984D02*
X15273753Y-9207508D01*
X15273753Y-9207508D02*
X15264229Y-9217031D01*
X15264229Y-9217031D02*
X15245182Y-9245603D01*
X15245182Y-9245603D02*
X15235658Y-9283698D01*
X15235658Y-9283698D02*
X15235658Y-9359889D01*
X15235658Y-9359889D02*
X15245182Y-9378936D01*
X15245182Y-9378936D02*
X15254706Y-9388460D01*
X15254706Y-9388460D02*
X15273753Y-9397984D01*
X15273753Y-9397984D02*
X15311848Y-9397984D01*
X15311848Y-9397984D02*
X15330896Y-9388460D01*
X15330896Y-9388460D02*
X15340420Y-9378936D01*
X15340420Y-9378936D02*
X15349944Y-9359889D01*
X15349944Y-9359889D02*
X15349944Y-9312270D01*
X15349944Y-9312270D02*
X15340420Y-9293222D01*
X15340420Y-9293222D02*
X15330896Y-9283698D01*
X15330896Y-9283698D02*
X15311848Y-9274174D01*
X15311848Y-9274174D02*
X15273753Y-9274174D01*
X15273753Y-9274174D02*
X15254706Y-9283698D01*
X15254706Y-9283698D02*
X15245182Y-9293222D01*
X15245182Y-9293222D02*
X15235658Y-9312270D01*
X15426134Y-9197984D02*
X15426134Y-9236079D01*
X15502325Y-9197984D02*
X15502325Y-9236079D01*
X15797563Y-9474174D02*
X15788039Y-9464650D01*
X15788039Y-9464650D02*
X15768991Y-9436079D01*
X15768991Y-9436079D02*
X15759468Y-9417031D01*
X15759468Y-9417031D02*
X15749944Y-9388460D01*
X15749944Y-9388460D02*
X15740420Y-9340841D01*
X15740420Y-9340841D02*
X15740420Y-9302746D01*
X15740420Y-9302746D02*
X15749944Y-9255127D01*
X15749944Y-9255127D02*
X15759468Y-9226555D01*
X15759468Y-9226555D02*
X15768991Y-9207508D01*
X15768991Y-9207508D02*
X15788039Y-9178936D01*
X15788039Y-9178936D02*
X15797563Y-9169412D01*
X15864229Y-9217031D02*
X15873753Y-9207508D01*
X15873753Y-9207508D02*
X15892801Y-9197984D01*
X15892801Y-9197984D02*
X15940420Y-9197984D01*
X15940420Y-9197984D02*
X15959468Y-9207508D01*
X15959468Y-9207508D02*
X15968991Y-9217031D01*
X15968991Y-9217031D02*
X15978515Y-9236079D01*
X15978515Y-9236079D02*
X15978515Y-9255127D01*
X15978515Y-9255127D02*
X15968991Y-9283698D01*
X15968991Y-9283698D02*
X15854706Y-9397984D01*
X15854706Y-9397984D02*
X15978515Y-9397984D01*
X16216610Y-9397984D02*
X16216610Y-9197984D01*
X16302325Y-9397984D02*
X16302325Y-9293222D01*
X16302325Y-9293222D02*
X16292801Y-9274174D01*
X16292801Y-9274174D02*
X16273753Y-9264650D01*
X16273753Y-9264650D02*
X16245182Y-9264650D01*
X16245182Y-9264650D02*
X16226134Y-9274174D01*
X16226134Y-9274174D02*
X16216610Y-9283698D01*
X16426134Y-9397984D02*
X16407087Y-9388460D01*
X16407087Y-9388460D02*
X16397563Y-9378936D01*
X16397563Y-9378936D02*
X16388039Y-9359889D01*
X16388039Y-9359889D02*
X16388039Y-9302746D01*
X16388039Y-9302746D02*
X16397563Y-9283698D01*
X16397563Y-9283698D02*
X16407087Y-9274174D01*
X16407087Y-9274174D02*
X16426134Y-9264650D01*
X16426134Y-9264650D02*
X16454706Y-9264650D01*
X16454706Y-9264650D02*
X16473753Y-9274174D01*
X16473753Y-9274174D02*
X16483277Y-9283698D01*
X16483277Y-9283698D02*
X16492801Y-9302746D01*
X16492801Y-9302746D02*
X16492801Y-9359889D01*
X16492801Y-9359889D02*
X16483277Y-9378936D01*
X16483277Y-9378936D02*
X16473753Y-9388460D01*
X16473753Y-9388460D02*
X16454706Y-9397984D01*
X16454706Y-9397984D02*
X16426134Y-9397984D01*
X16607087Y-9397984D02*
X16588039Y-9388460D01*
X16588039Y-9388460D02*
X16578515Y-9369412D01*
X16578515Y-9369412D02*
X16578515Y-9197984D01*
X16759468Y-9388460D02*
X16740420Y-9397984D01*
X16740420Y-9397984D02*
X16702325Y-9397984D01*
X16702325Y-9397984D02*
X16683277Y-9388460D01*
X16683277Y-9388460D02*
X16673753Y-9369412D01*
X16673753Y-9369412D02*
X16673753Y-9293222D01*
X16673753Y-9293222D02*
X16683277Y-9274174D01*
X16683277Y-9274174D02*
X16702325Y-9264650D01*
X16702325Y-9264650D02*
X16740420Y-9264650D01*
X16740420Y-9264650D02*
X16759468Y-9274174D01*
X16759468Y-9274174D02*
X16768991Y-9293222D01*
X16768991Y-9293222D02*
X16768991Y-9312270D01*
X16768991Y-9312270D02*
X16673753Y-9331317D01*
X16845182Y-9388460D02*
X16864230Y-9397984D01*
X16864230Y-9397984D02*
X16902325Y-9397984D01*
X16902325Y-9397984D02*
X16921373Y-9388460D01*
X16921373Y-9388460D02*
X16930896Y-9369412D01*
X16930896Y-9369412D02*
X16930896Y-9359889D01*
X16930896Y-9359889D02*
X16921373Y-9340841D01*
X16921373Y-9340841D02*
X16902325Y-9331317D01*
X16902325Y-9331317D02*
X16873753Y-9331317D01*
X16873753Y-9331317D02*
X16854706Y-9321793D01*
X16854706Y-9321793D02*
X16845182Y-9302746D01*
X16845182Y-9302746D02*
X16845182Y-9293222D01*
X16845182Y-9293222D02*
X16854706Y-9274174D01*
X16854706Y-9274174D02*
X16873753Y-9264650D01*
X16873753Y-9264650D02*
X16902325Y-9264650D01*
X16902325Y-9264650D02*
X16921373Y-9274174D01*
X16997563Y-9474174D02*
X17007087Y-9464650D01*
X17007087Y-9464650D02*
X17026134Y-9436079D01*
X17026134Y-9436079D02*
X17035658Y-9417031D01*
X17035658Y-9417031D02*
X17045182Y-9388460D01*
X17045182Y-9388460D02*
X17054706Y-9340841D01*
X17054706Y-9340841D02*
X17054706Y-9302746D01*
X17054706Y-9302746D02*
X17045182Y-9255127D01*
X17045182Y-9255127D02*
X17035658Y-9226555D01*
X17035658Y-9226555D02*
X17026134Y-9207508D01*
X17026134Y-9207508D02*
X17007087Y-9178936D01*
X17007087Y-9178936D02*
X16997563Y-9169412D01*
D12*
X12177500Y-9525500D02*
X12177500Y-9615500D01*
X12132500Y-9570500D02*
X12222500Y-9570500D01*
D11*
X12521372Y-9461984D02*
X12540420Y-9461984D01*
X12540420Y-9461984D02*
X12559467Y-9471508D01*
X12559467Y-9471508D02*
X12568991Y-9481031D01*
X12568991Y-9481031D02*
X12578515Y-9500079D01*
X12578515Y-9500079D02*
X12588039Y-9538174D01*
X12588039Y-9538174D02*
X12588039Y-9585793D01*
X12588039Y-9585793D02*
X12578515Y-9623889D01*
X12578515Y-9623889D02*
X12568991Y-9642936D01*
X12568991Y-9642936D02*
X12559467Y-9652460D01*
X12559467Y-9652460D02*
X12540420Y-9661984D01*
X12540420Y-9661984D02*
X12521372Y-9661984D01*
X12521372Y-9661984D02*
X12502324Y-9652460D01*
X12502324Y-9652460D02*
X12492801Y-9642936D01*
X12492801Y-9642936D02*
X12483277Y-9623889D01*
X12483277Y-9623889D02*
X12473753Y-9585793D01*
X12473753Y-9585793D02*
X12473753Y-9538174D01*
X12473753Y-9538174D02*
X12483277Y-9500079D01*
X12483277Y-9500079D02*
X12492801Y-9481031D01*
X12492801Y-9481031D02*
X12502324Y-9471508D01*
X12502324Y-9471508D02*
X12521372Y-9461984D01*
X12673753Y-9642936D02*
X12683277Y-9652460D01*
X12683277Y-9652460D02*
X12673753Y-9661984D01*
X12673753Y-9661984D02*
X12664229Y-9652460D01*
X12664229Y-9652460D02*
X12673753Y-9642936D01*
X12673753Y-9642936D02*
X12673753Y-9661984D01*
X12778515Y-9661984D02*
X12816610Y-9661984D01*
X12816610Y-9661984D02*
X12835658Y-9652460D01*
X12835658Y-9652460D02*
X12845182Y-9642936D01*
X12845182Y-9642936D02*
X12864229Y-9614365D01*
X12864229Y-9614365D02*
X12873753Y-9576270D01*
X12873753Y-9576270D02*
X12873753Y-9500079D01*
X12873753Y-9500079D02*
X12864229Y-9481031D01*
X12864229Y-9481031D02*
X12854705Y-9471508D01*
X12854705Y-9471508D02*
X12835658Y-9461984D01*
X12835658Y-9461984D02*
X12797562Y-9461984D01*
X12797562Y-9461984D02*
X12778515Y-9471508D01*
X12778515Y-9471508D02*
X12768991Y-9481031D01*
X12768991Y-9481031D02*
X12759467Y-9500079D01*
X12759467Y-9500079D02*
X12759467Y-9547698D01*
X12759467Y-9547698D02*
X12768991Y-9566746D01*
X12768991Y-9566746D02*
X12778515Y-9576270D01*
X12778515Y-9576270D02*
X12797562Y-9585793D01*
X12797562Y-9585793D02*
X12835658Y-9585793D01*
X12835658Y-9585793D02*
X12854705Y-9576270D01*
X12854705Y-9576270D02*
X12864229Y-9566746D01*
X12864229Y-9566746D02*
X12873753Y-9547698D01*
X12997562Y-9461984D02*
X13016610Y-9461984D01*
X13016610Y-9461984D02*
X13035658Y-9471508D01*
X13035658Y-9471508D02*
X13045182Y-9481031D01*
X13045182Y-9481031D02*
X13054705Y-9500079D01*
X13054705Y-9500079D02*
X13064229Y-9538174D01*
X13064229Y-9538174D02*
X13064229Y-9585793D01*
X13064229Y-9585793D02*
X13054705Y-9623889D01*
X13054705Y-9623889D02*
X13045182Y-9642936D01*
X13045182Y-9642936D02*
X13035658Y-9652460D01*
X13035658Y-9652460D02*
X13016610Y-9661984D01*
X13016610Y-9661984D02*
X12997562Y-9661984D01*
X12997562Y-9661984D02*
X12978515Y-9652460D01*
X12978515Y-9652460D02*
X12968991Y-9642936D01*
X12968991Y-9642936D02*
X12959467Y-9623889D01*
X12959467Y-9623889D02*
X12949943Y-9585793D01*
X12949943Y-9585793D02*
X12949943Y-9538174D01*
X12949943Y-9538174D02*
X12959467Y-9500079D01*
X12959467Y-9500079D02*
X12968991Y-9481031D01*
X12968991Y-9481031D02*
X12978515Y-9471508D01*
X12978515Y-9471508D02*
X12997562Y-9461984D01*
X13188039Y-9461984D02*
X13207086Y-9461984D01*
X13207086Y-9461984D02*
X13226134Y-9471508D01*
X13226134Y-9471508D02*
X13235658Y-9481031D01*
X13235658Y-9481031D02*
X13245182Y-9500079D01*
X13245182Y-9500079D02*
X13254705Y-9538174D01*
X13254705Y-9538174D02*
X13254705Y-9585793D01*
X13254705Y-9585793D02*
X13245182Y-9623889D01*
X13245182Y-9623889D02*
X13235658Y-9642936D01*
X13235658Y-9642936D02*
X13226134Y-9652460D01*
X13226134Y-9652460D02*
X13207086Y-9661984D01*
X13207086Y-9661984D02*
X13188039Y-9661984D01*
X13188039Y-9661984D02*
X13168991Y-9652460D01*
X13168991Y-9652460D02*
X13159467Y-9642936D01*
X13159467Y-9642936D02*
X13149943Y-9623889D01*
X13149943Y-9623889D02*
X13140420Y-9585793D01*
X13140420Y-9585793D02*
X13140420Y-9538174D01*
X13140420Y-9538174D02*
X13149943Y-9500079D01*
X13149943Y-9500079D02*
X13159467Y-9481031D01*
X13159467Y-9481031D02*
X13168991Y-9471508D01*
X13168991Y-9471508D02*
X13188039Y-9461984D01*
X13340420Y-9661984D02*
X13340420Y-9528650D01*
X13340420Y-9547698D02*
X13349943Y-9538174D01*
X13349943Y-9538174D02*
X13368991Y-9528650D01*
X13368991Y-9528650D02*
X13397563Y-9528650D01*
X13397563Y-9528650D02*
X13416610Y-9538174D01*
X13416610Y-9538174D02*
X13426134Y-9557222D01*
X13426134Y-9557222D02*
X13426134Y-9661984D01*
X13426134Y-9557222D02*
X13435658Y-9538174D01*
X13435658Y-9538174D02*
X13454705Y-9528650D01*
X13454705Y-9528650D02*
X13483277Y-9528650D01*
X13483277Y-9528650D02*
X13502324Y-9538174D01*
X13502324Y-9538174D02*
X13511848Y-9557222D01*
X13511848Y-9557222D02*
X13511848Y-9661984D01*
X13607086Y-9661984D02*
X13607086Y-9528650D01*
X13607086Y-9547698D02*
X13616610Y-9538174D01*
X13616610Y-9538174D02*
X13635658Y-9528650D01*
X13635658Y-9528650D02*
X13664229Y-9528650D01*
X13664229Y-9528650D02*
X13683277Y-9538174D01*
X13683277Y-9538174D02*
X13692801Y-9557222D01*
X13692801Y-9557222D02*
X13692801Y-9661984D01*
X13692801Y-9557222D02*
X13702324Y-9538174D01*
X13702324Y-9538174D02*
X13721372Y-9528650D01*
X13721372Y-9528650D02*
X13749943Y-9528650D01*
X13749943Y-9528650D02*
X13768991Y-9538174D01*
X13768991Y-9538174D02*
X13778515Y-9557222D01*
X13778515Y-9557222D02*
X13778515Y-9661984D01*
X14168991Y-9452460D02*
X13997563Y-9709603D01*
X14426134Y-9461984D02*
X14445182Y-9461984D01*
X14445182Y-9461984D02*
X14464229Y-9471508D01*
X14464229Y-9471508D02*
X14473753Y-9481031D01*
X14473753Y-9481031D02*
X14483277Y-9500079D01*
X14483277Y-9500079D02*
X14492801Y-9538174D01*
X14492801Y-9538174D02*
X14492801Y-9585793D01*
X14492801Y-9585793D02*
X14483277Y-9623889D01*
X14483277Y-9623889D02*
X14473753Y-9642936D01*
X14473753Y-9642936D02*
X14464229Y-9652460D01*
X14464229Y-9652460D02*
X14445182Y-9661984D01*
X14445182Y-9661984D02*
X14426134Y-9661984D01*
X14426134Y-9661984D02*
X14407086Y-9652460D01*
X14407086Y-9652460D02*
X14397563Y-9642936D01*
X14397563Y-9642936D02*
X14388039Y-9623889D01*
X14388039Y-9623889D02*
X14378515Y-9585793D01*
X14378515Y-9585793D02*
X14378515Y-9538174D01*
X14378515Y-9538174D02*
X14388039Y-9500079D01*
X14388039Y-9500079D02*
X14397563Y-9481031D01*
X14397563Y-9481031D02*
X14407086Y-9471508D01*
X14407086Y-9471508D02*
X14426134Y-9461984D01*
X14578515Y-9642936D02*
X14588039Y-9652460D01*
X14588039Y-9652460D02*
X14578515Y-9661984D01*
X14578515Y-9661984D02*
X14568991Y-9652460D01*
X14568991Y-9652460D02*
X14578515Y-9642936D01*
X14578515Y-9642936D02*
X14578515Y-9661984D01*
X14711848Y-9461984D02*
X14730896Y-9461984D01*
X14730896Y-9461984D02*
X14749944Y-9471508D01*
X14749944Y-9471508D02*
X14759467Y-9481031D01*
X14759467Y-9481031D02*
X14768991Y-9500079D01*
X14768991Y-9500079D02*
X14778515Y-9538174D01*
X14778515Y-9538174D02*
X14778515Y-9585793D01*
X14778515Y-9585793D02*
X14768991Y-9623889D01*
X14768991Y-9623889D02*
X14759467Y-9642936D01*
X14759467Y-9642936D02*
X14749944Y-9652460D01*
X14749944Y-9652460D02*
X14730896Y-9661984D01*
X14730896Y-9661984D02*
X14711848Y-9661984D01*
X14711848Y-9661984D02*
X14692801Y-9652460D01*
X14692801Y-9652460D02*
X14683277Y-9642936D01*
X14683277Y-9642936D02*
X14673753Y-9623889D01*
X14673753Y-9623889D02*
X14664229Y-9585793D01*
X14664229Y-9585793D02*
X14664229Y-9538174D01*
X14664229Y-9538174D02*
X14673753Y-9500079D01*
X14673753Y-9500079D02*
X14683277Y-9481031D01*
X14683277Y-9481031D02*
X14692801Y-9471508D01*
X14692801Y-9471508D02*
X14711848Y-9461984D01*
X14845182Y-9461984D02*
X14968991Y-9461984D01*
X14968991Y-9461984D02*
X14902325Y-9538174D01*
X14902325Y-9538174D02*
X14930896Y-9538174D01*
X14930896Y-9538174D02*
X14949944Y-9547698D01*
X14949944Y-9547698D02*
X14959467Y-9557222D01*
X14959467Y-9557222D02*
X14968991Y-9576270D01*
X14968991Y-9576270D02*
X14968991Y-9623889D01*
X14968991Y-9623889D02*
X14959467Y-9642936D01*
X14959467Y-9642936D02*
X14949944Y-9652460D01*
X14949944Y-9652460D02*
X14930896Y-9661984D01*
X14930896Y-9661984D02*
X14873753Y-9661984D01*
X14873753Y-9661984D02*
X14854706Y-9652460D01*
X14854706Y-9652460D02*
X14845182Y-9642936D01*
X15149944Y-9461984D02*
X15054706Y-9461984D01*
X15054706Y-9461984D02*
X15045182Y-9557222D01*
X15045182Y-9557222D02*
X15054706Y-9547698D01*
X15054706Y-9547698D02*
X15073753Y-9538174D01*
X15073753Y-9538174D02*
X15121372Y-9538174D01*
X15121372Y-9538174D02*
X15140420Y-9547698D01*
X15140420Y-9547698D02*
X15149944Y-9557222D01*
X15149944Y-9557222D02*
X15159467Y-9576270D01*
X15159467Y-9576270D02*
X15159467Y-9623889D01*
X15159467Y-9623889D02*
X15149944Y-9642936D01*
X15149944Y-9642936D02*
X15140420Y-9652460D01*
X15140420Y-9652460D02*
X15121372Y-9661984D01*
X15121372Y-9661984D02*
X15073753Y-9661984D01*
X15073753Y-9661984D02*
X15054706Y-9652460D01*
X15054706Y-9652460D02*
X15045182Y-9642936D01*
X15330896Y-9528650D02*
X15330896Y-9661984D01*
X15283277Y-9452460D02*
X15235658Y-9595317D01*
X15235658Y-9595317D02*
X15359467Y-9595317D01*
X15426134Y-9461984D02*
X15426134Y-9500079D01*
X15502325Y-9461984D02*
X15502325Y-9500079D01*
X15797563Y-9738174D02*
X15788039Y-9728650D01*
X15788039Y-9728650D02*
X15768991Y-9700079D01*
X15768991Y-9700079D02*
X15759468Y-9681031D01*
X15759468Y-9681031D02*
X15749944Y-9652460D01*
X15749944Y-9652460D02*
X15740420Y-9604841D01*
X15740420Y-9604841D02*
X15740420Y-9566746D01*
X15740420Y-9566746D02*
X15749944Y-9519127D01*
X15749944Y-9519127D02*
X15759468Y-9490555D01*
X15759468Y-9490555D02*
X15768991Y-9471508D01*
X15768991Y-9471508D02*
X15788039Y-9442936D01*
X15788039Y-9442936D02*
X15797563Y-9433412D01*
X15864229Y-9481031D02*
X15873753Y-9471508D01*
X15873753Y-9471508D02*
X15892801Y-9461984D01*
X15892801Y-9461984D02*
X15940420Y-9461984D01*
X15940420Y-9461984D02*
X15959468Y-9471508D01*
X15959468Y-9471508D02*
X15968991Y-9481031D01*
X15968991Y-9481031D02*
X15978515Y-9500079D01*
X15978515Y-9500079D02*
X15978515Y-9519127D01*
X15978515Y-9519127D02*
X15968991Y-9547698D01*
X15968991Y-9547698D02*
X15854706Y-9661984D01*
X15854706Y-9661984D02*
X15978515Y-9661984D01*
X16216610Y-9661984D02*
X16216610Y-9461984D01*
X16302325Y-9661984D02*
X16302325Y-9557222D01*
X16302325Y-9557222D02*
X16292801Y-9538174D01*
X16292801Y-9538174D02*
X16273753Y-9528650D01*
X16273753Y-9528650D02*
X16245182Y-9528650D01*
X16245182Y-9528650D02*
X16226134Y-9538174D01*
X16226134Y-9538174D02*
X16216610Y-9547698D01*
X16426134Y-9661984D02*
X16407087Y-9652460D01*
X16407087Y-9652460D02*
X16397563Y-9642936D01*
X16397563Y-9642936D02*
X16388039Y-9623889D01*
X16388039Y-9623889D02*
X16388039Y-9566746D01*
X16388039Y-9566746D02*
X16397563Y-9547698D01*
X16397563Y-9547698D02*
X16407087Y-9538174D01*
X16407087Y-9538174D02*
X16426134Y-9528650D01*
X16426134Y-9528650D02*
X16454706Y-9528650D01*
X16454706Y-9528650D02*
X16473753Y-9538174D01*
X16473753Y-9538174D02*
X16483277Y-9547698D01*
X16483277Y-9547698D02*
X16492801Y-9566746D01*
X16492801Y-9566746D02*
X16492801Y-9623889D01*
X16492801Y-9623889D02*
X16483277Y-9642936D01*
X16483277Y-9642936D02*
X16473753Y-9652460D01*
X16473753Y-9652460D02*
X16454706Y-9661984D01*
X16454706Y-9661984D02*
X16426134Y-9661984D01*
X16607087Y-9661984D02*
X16588039Y-9652460D01*
X16588039Y-9652460D02*
X16578515Y-9633412D01*
X16578515Y-9633412D02*
X16578515Y-9461984D01*
X16759468Y-9652460D02*
X16740420Y-9661984D01*
X16740420Y-9661984D02*
X16702325Y-9661984D01*
X16702325Y-9661984D02*
X16683277Y-9652460D01*
X16683277Y-9652460D02*
X16673753Y-9633412D01*
X16673753Y-9633412D02*
X16673753Y-9557222D01*
X16673753Y-9557222D02*
X16683277Y-9538174D01*
X16683277Y-9538174D02*
X16702325Y-9528650D01*
X16702325Y-9528650D02*
X16740420Y-9528650D01*
X16740420Y-9528650D02*
X16759468Y-9538174D01*
X16759468Y-9538174D02*
X16768991Y-9557222D01*
X16768991Y-9557222D02*
X16768991Y-9576270D01*
X16768991Y-9576270D02*
X16673753Y-9595317D01*
X16845182Y-9652460D02*
X16864230Y-9661984D01*
X16864230Y-9661984D02*
X16902325Y-9661984D01*
X16902325Y-9661984D02*
X16921373Y-9652460D01*
X16921373Y-9652460D02*
X16930896Y-9633412D01*
X16930896Y-9633412D02*
X16930896Y-9623889D01*
X16930896Y-9623889D02*
X16921373Y-9604841D01*
X16921373Y-9604841D02*
X16902325Y-9595317D01*
X16902325Y-9595317D02*
X16873753Y-9595317D01*
X16873753Y-9595317D02*
X16854706Y-9585793D01*
X16854706Y-9585793D02*
X16845182Y-9566746D01*
X16845182Y-9566746D02*
X16845182Y-9557222D01*
X16845182Y-9557222D02*
X16854706Y-9538174D01*
X16854706Y-9538174D02*
X16873753Y-9528650D01*
X16873753Y-9528650D02*
X16902325Y-9528650D01*
X16902325Y-9528650D02*
X16921373Y-9538174D01*
X16997563Y-9738174D02*
X17007087Y-9728650D01*
X17007087Y-9728650D02*
X17026134Y-9700079D01*
X17026134Y-9700079D02*
X17035658Y-9681031D01*
X17035658Y-9681031D02*
X17045182Y-9652460D01*
X17045182Y-9652460D02*
X17054706Y-9604841D01*
X17054706Y-9604841D02*
X17054706Y-9566746D01*
X17054706Y-9566746D02*
X17045182Y-9519127D01*
X17045182Y-9519127D02*
X17035658Y-9490555D01*
X17035658Y-9490555D02*
X17026134Y-9471508D01*
X17026134Y-9471508D02*
X17007087Y-9442936D01*
X17007087Y-9442936D02*
X16997563Y-9433412D01*
D12*
X12207856Y-9869856D02*
X12207856Y-9799144D01*
X12137144Y-9799144D01*
X12137144Y-9869856D01*
X12207856Y-9869856D01*
D11*
X12588039Y-9925984D02*
X12473753Y-9925984D01*
X12530896Y-9925984D02*
X12530896Y-9725984D01*
X12530896Y-9725984D02*
X12511848Y-9754555D01*
X12511848Y-9754555D02*
X12492801Y-9773603D01*
X12492801Y-9773603D02*
X12473753Y-9783127D01*
X12673753Y-9906936D02*
X12683277Y-9916460D01*
X12683277Y-9916460D02*
X12673753Y-9925984D01*
X12673753Y-9925984D02*
X12664229Y-9916460D01*
X12664229Y-9916460D02*
X12673753Y-9906936D01*
X12673753Y-9906936D02*
X12673753Y-9925984D01*
X12807086Y-9725984D02*
X12826134Y-9725984D01*
X12826134Y-9725984D02*
X12845182Y-9735508D01*
X12845182Y-9735508D02*
X12854705Y-9745031D01*
X12854705Y-9745031D02*
X12864229Y-9764079D01*
X12864229Y-9764079D02*
X12873753Y-9802174D01*
X12873753Y-9802174D02*
X12873753Y-9849793D01*
X12873753Y-9849793D02*
X12864229Y-9887889D01*
X12864229Y-9887889D02*
X12854705Y-9906936D01*
X12854705Y-9906936D02*
X12845182Y-9916460D01*
X12845182Y-9916460D02*
X12826134Y-9925984D01*
X12826134Y-9925984D02*
X12807086Y-9925984D01*
X12807086Y-9925984D02*
X12788039Y-9916460D01*
X12788039Y-9916460D02*
X12778515Y-9906936D01*
X12778515Y-9906936D02*
X12768991Y-9887889D01*
X12768991Y-9887889D02*
X12759467Y-9849793D01*
X12759467Y-9849793D02*
X12759467Y-9802174D01*
X12759467Y-9802174D02*
X12768991Y-9764079D01*
X12768991Y-9764079D02*
X12778515Y-9745031D01*
X12778515Y-9745031D02*
X12788039Y-9735508D01*
X12788039Y-9735508D02*
X12807086Y-9725984D01*
X12997562Y-9725984D02*
X13016610Y-9725984D01*
X13016610Y-9725984D02*
X13035658Y-9735508D01*
X13035658Y-9735508D02*
X13045182Y-9745031D01*
X13045182Y-9745031D02*
X13054705Y-9764079D01*
X13054705Y-9764079D02*
X13064229Y-9802174D01*
X13064229Y-9802174D02*
X13064229Y-9849793D01*
X13064229Y-9849793D02*
X13054705Y-9887889D01*
X13054705Y-9887889D02*
X13045182Y-9906936D01*
X13045182Y-9906936D02*
X13035658Y-9916460D01*
X13035658Y-9916460D02*
X13016610Y-9925984D01*
X13016610Y-9925984D02*
X12997562Y-9925984D01*
X12997562Y-9925984D02*
X12978515Y-9916460D01*
X12978515Y-9916460D02*
X12968991Y-9906936D01*
X12968991Y-9906936D02*
X12959467Y-9887889D01*
X12959467Y-9887889D02*
X12949943Y-9849793D01*
X12949943Y-9849793D02*
X12949943Y-9802174D01*
X12949943Y-9802174D02*
X12959467Y-9764079D01*
X12959467Y-9764079D02*
X12968991Y-9745031D01*
X12968991Y-9745031D02*
X12978515Y-9735508D01*
X12978515Y-9735508D02*
X12997562Y-9725984D01*
X13188039Y-9725984D02*
X13207086Y-9725984D01*
X13207086Y-9725984D02*
X13226134Y-9735508D01*
X13226134Y-9735508D02*
X13235658Y-9745031D01*
X13235658Y-9745031D02*
X13245182Y-9764079D01*
X13245182Y-9764079D02*
X13254705Y-9802174D01*
X13254705Y-9802174D02*
X13254705Y-9849793D01*
X13254705Y-9849793D02*
X13245182Y-9887889D01*
X13245182Y-9887889D02*
X13235658Y-9906936D01*
X13235658Y-9906936D02*
X13226134Y-9916460D01*
X13226134Y-9916460D02*
X13207086Y-9925984D01*
X13207086Y-9925984D02*
X13188039Y-9925984D01*
X13188039Y-9925984D02*
X13168991Y-9916460D01*
X13168991Y-9916460D02*
X13159467Y-9906936D01*
X13159467Y-9906936D02*
X13149943Y-9887889D01*
X13149943Y-9887889D02*
X13140420Y-9849793D01*
X13140420Y-9849793D02*
X13140420Y-9802174D01*
X13140420Y-9802174D02*
X13149943Y-9764079D01*
X13149943Y-9764079D02*
X13159467Y-9745031D01*
X13159467Y-9745031D02*
X13168991Y-9735508D01*
X13168991Y-9735508D02*
X13188039Y-9725984D01*
X13340420Y-9925984D02*
X13340420Y-9792650D01*
X13340420Y-9811698D02*
X13349943Y-9802174D01*
X13349943Y-9802174D02*
X13368991Y-9792650D01*
X13368991Y-9792650D02*
X13397563Y-9792650D01*
X13397563Y-9792650D02*
X13416610Y-9802174D01*
X13416610Y-9802174D02*
X13426134Y-9821222D01*
X13426134Y-9821222D02*
X13426134Y-9925984D01*
X13426134Y-9821222D02*
X13435658Y-9802174D01*
X13435658Y-9802174D02*
X13454705Y-9792650D01*
X13454705Y-9792650D02*
X13483277Y-9792650D01*
X13483277Y-9792650D02*
X13502324Y-9802174D01*
X13502324Y-9802174D02*
X13511848Y-9821222D01*
X13511848Y-9821222D02*
X13511848Y-9925984D01*
X13607086Y-9925984D02*
X13607086Y-9792650D01*
X13607086Y-9811698D02*
X13616610Y-9802174D01*
X13616610Y-9802174D02*
X13635658Y-9792650D01*
X13635658Y-9792650D02*
X13664229Y-9792650D01*
X13664229Y-9792650D02*
X13683277Y-9802174D01*
X13683277Y-9802174D02*
X13692801Y-9821222D01*
X13692801Y-9821222D02*
X13692801Y-9925984D01*
X13692801Y-9821222D02*
X13702324Y-9802174D01*
X13702324Y-9802174D02*
X13721372Y-9792650D01*
X13721372Y-9792650D02*
X13749943Y-9792650D01*
X13749943Y-9792650D02*
X13768991Y-9802174D01*
X13768991Y-9802174D02*
X13778515Y-9821222D01*
X13778515Y-9821222D02*
X13778515Y-9925984D01*
X14168991Y-9716460D02*
X13997563Y-9973603D01*
X14426134Y-9725984D02*
X14445182Y-9725984D01*
X14445182Y-9725984D02*
X14464229Y-9735508D01*
X14464229Y-9735508D02*
X14473753Y-9745031D01*
X14473753Y-9745031D02*
X14483277Y-9764079D01*
X14483277Y-9764079D02*
X14492801Y-9802174D01*
X14492801Y-9802174D02*
X14492801Y-9849793D01*
X14492801Y-9849793D02*
X14483277Y-9887889D01*
X14483277Y-9887889D02*
X14473753Y-9906936D01*
X14473753Y-9906936D02*
X14464229Y-9916460D01*
X14464229Y-9916460D02*
X14445182Y-9925984D01*
X14445182Y-9925984D02*
X14426134Y-9925984D01*
X14426134Y-9925984D02*
X14407086Y-9916460D01*
X14407086Y-9916460D02*
X14397563Y-9906936D01*
X14397563Y-9906936D02*
X14388039Y-9887889D01*
X14388039Y-9887889D02*
X14378515Y-9849793D01*
X14378515Y-9849793D02*
X14378515Y-9802174D01*
X14378515Y-9802174D02*
X14388039Y-9764079D01*
X14388039Y-9764079D02*
X14397563Y-9745031D01*
X14397563Y-9745031D02*
X14407086Y-9735508D01*
X14407086Y-9735508D02*
X14426134Y-9725984D01*
X14578515Y-9906936D02*
X14588039Y-9916460D01*
X14588039Y-9916460D02*
X14578515Y-9925984D01*
X14578515Y-9925984D02*
X14568991Y-9916460D01*
X14568991Y-9916460D02*
X14578515Y-9906936D01*
X14578515Y-9906936D02*
X14578515Y-9925984D01*
X14711848Y-9725984D02*
X14730896Y-9725984D01*
X14730896Y-9725984D02*
X14749944Y-9735508D01*
X14749944Y-9735508D02*
X14759467Y-9745031D01*
X14759467Y-9745031D02*
X14768991Y-9764079D01*
X14768991Y-9764079D02*
X14778515Y-9802174D01*
X14778515Y-9802174D02*
X14778515Y-9849793D01*
X14778515Y-9849793D02*
X14768991Y-9887889D01*
X14768991Y-9887889D02*
X14759467Y-9906936D01*
X14759467Y-9906936D02*
X14749944Y-9916460D01*
X14749944Y-9916460D02*
X14730896Y-9925984D01*
X14730896Y-9925984D02*
X14711848Y-9925984D01*
X14711848Y-9925984D02*
X14692801Y-9916460D01*
X14692801Y-9916460D02*
X14683277Y-9906936D01*
X14683277Y-9906936D02*
X14673753Y-9887889D01*
X14673753Y-9887889D02*
X14664229Y-9849793D01*
X14664229Y-9849793D02*
X14664229Y-9802174D01*
X14664229Y-9802174D02*
X14673753Y-9764079D01*
X14673753Y-9764079D02*
X14683277Y-9745031D01*
X14683277Y-9745031D02*
X14692801Y-9735508D01*
X14692801Y-9735508D02*
X14711848Y-9725984D01*
X14845182Y-9725984D02*
X14968991Y-9725984D01*
X14968991Y-9725984D02*
X14902325Y-9802174D01*
X14902325Y-9802174D02*
X14930896Y-9802174D01*
X14930896Y-9802174D02*
X14949944Y-9811698D01*
X14949944Y-9811698D02*
X14959467Y-9821222D01*
X14959467Y-9821222D02*
X14968991Y-9840270D01*
X14968991Y-9840270D02*
X14968991Y-9887889D01*
X14968991Y-9887889D02*
X14959467Y-9906936D01*
X14959467Y-9906936D02*
X14949944Y-9916460D01*
X14949944Y-9916460D02*
X14930896Y-9925984D01*
X14930896Y-9925984D02*
X14873753Y-9925984D01*
X14873753Y-9925984D02*
X14854706Y-9916460D01*
X14854706Y-9916460D02*
X14845182Y-9906936D01*
X15064229Y-9925984D02*
X15102325Y-9925984D01*
X15102325Y-9925984D02*
X15121372Y-9916460D01*
X15121372Y-9916460D02*
X15130896Y-9906936D01*
X15130896Y-9906936D02*
X15149944Y-9878365D01*
X15149944Y-9878365D02*
X15159467Y-9840270D01*
X15159467Y-9840270D02*
X15159467Y-9764079D01*
X15159467Y-9764079D02*
X15149944Y-9745031D01*
X15149944Y-9745031D02*
X15140420Y-9735508D01*
X15140420Y-9735508D02*
X15121372Y-9725984D01*
X15121372Y-9725984D02*
X15083277Y-9725984D01*
X15083277Y-9725984D02*
X15064229Y-9735508D01*
X15064229Y-9735508D02*
X15054706Y-9745031D01*
X15054706Y-9745031D02*
X15045182Y-9764079D01*
X15045182Y-9764079D02*
X15045182Y-9811698D01*
X15045182Y-9811698D02*
X15054706Y-9830746D01*
X15054706Y-9830746D02*
X15064229Y-9840270D01*
X15064229Y-9840270D02*
X15083277Y-9849793D01*
X15083277Y-9849793D02*
X15121372Y-9849793D01*
X15121372Y-9849793D02*
X15140420Y-9840270D01*
X15140420Y-9840270D02*
X15149944Y-9830746D01*
X15149944Y-9830746D02*
X15159467Y-9811698D01*
X15330896Y-9792650D02*
X15330896Y-9925984D01*
X15283277Y-9716460D02*
X15235658Y-9859317D01*
X15235658Y-9859317D02*
X15359467Y-9859317D01*
X15426134Y-9725984D02*
X15426134Y-9764079D01*
X15502325Y-9725984D02*
X15502325Y-9764079D01*
X15797563Y-10002174D02*
X15788039Y-9992650D01*
X15788039Y-9992650D02*
X15768991Y-9964079D01*
X15768991Y-9964079D02*
X15759468Y-9945031D01*
X15759468Y-9945031D02*
X15749944Y-9916460D01*
X15749944Y-9916460D02*
X15740420Y-9868841D01*
X15740420Y-9868841D02*
X15740420Y-9830746D01*
X15740420Y-9830746D02*
X15749944Y-9783127D01*
X15749944Y-9783127D02*
X15759468Y-9754555D01*
X15759468Y-9754555D02*
X15768991Y-9735508D01*
X15768991Y-9735508D02*
X15788039Y-9706936D01*
X15788039Y-9706936D02*
X15797563Y-9697412D01*
X15978515Y-9925984D02*
X15864229Y-9925984D01*
X15921372Y-9925984D02*
X15921372Y-9725984D01*
X15921372Y-9725984D02*
X15902325Y-9754555D01*
X15902325Y-9754555D02*
X15883277Y-9773603D01*
X15883277Y-9773603D02*
X15864229Y-9783127D01*
X16045182Y-9725984D02*
X16168991Y-9725984D01*
X16168991Y-9725984D02*
X16102325Y-9802174D01*
X16102325Y-9802174D02*
X16130896Y-9802174D01*
X16130896Y-9802174D02*
X16149944Y-9811698D01*
X16149944Y-9811698D02*
X16159468Y-9821222D01*
X16159468Y-9821222D02*
X16168991Y-9840270D01*
X16168991Y-9840270D02*
X16168991Y-9887889D01*
X16168991Y-9887889D02*
X16159468Y-9906936D01*
X16159468Y-9906936D02*
X16149944Y-9916460D01*
X16149944Y-9916460D02*
X16130896Y-9925984D01*
X16130896Y-9925984D02*
X16073753Y-9925984D01*
X16073753Y-9925984D02*
X16054706Y-9916460D01*
X16054706Y-9916460D02*
X16045182Y-9906936D01*
X16407087Y-9925984D02*
X16407087Y-9725984D01*
X16492801Y-9925984D02*
X16492801Y-9821222D01*
X16492801Y-9821222D02*
X16483277Y-9802174D01*
X16483277Y-9802174D02*
X16464230Y-9792650D01*
X16464230Y-9792650D02*
X16435658Y-9792650D01*
X16435658Y-9792650D02*
X16416610Y-9802174D01*
X16416610Y-9802174D02*
X16407087Y-9811698D01*
X16616610Y-9925984D02*
X16597563Y-9916460D01*
X16597563Y-9916460D02*
X16588039Y-9906936D01*
X16588039Y-9906936D02*
X16578515Y-9887889D01*
X16578515Y-9887889D02*
X16578515Y-9830746D01*
X16578515Y-9830746D02*
X16588039Y-9811698D01*
X16588039Y-9811698D02*
X16597563Y-9802174D01*
X16597563Y-9802174D02*
X16616610Y-9792650D01*
X16616610Y-9792650D02*
X16645182Y-9792650D01*
X16645182Y-9792650D02*
X16664230Y-9802174D01*
X16664230Y-9802174D02*
X16673753Y-9811698D01*
X16673753Y-9811698D02*
X16683277Y-9830746D01*
X16683277Y-9830746D02*
X16683277Y-9887889D01*
X16683277Y-9887889D02*
X16673753Y-9906936D01*
X16673753Y-9906936D02*
X16664230Y-9916460D01*
X16664230Y-9916460D02*
X16645182Y-9925984D01*
X16645182Y-9925984D02*
X16616610Y-9925984D01*
X16797563Y-9925984D02*
X16778515Y-9916460D01*
X16778515Y-9916460D02*
X16768991Y-9897412D01*
X16768991Y-9897412D02*
X16768991Y-9725984D01*
X16949944Y-9916460D02*
X16930896Y-9925984D01*
X16930896Y-9925984D02*
X16892801Y-9925984D01*
X16892801Y-9925984D02*
X16873753Y-9916460D01*
X16873753Y-9916460D02*
X16864230Y-9897412D01*
X16864230Y-9897412D02*
X16864230Y-9821222D01*
X16864230Y-9821222D02*
X16873753Y-9802174D01*
X16873753Y-9802174D02*
X16892801Y-9792650D01*
X16892801Y-9792650D02*
X16930896Y-9792650D01*
X16930896Y-9792650D02*
X16949944Y-9802174D01*
X16949944Y-9802174D02*
X16959468Y-9821222D01*
X16959468Y-9821222D02*
X16959468Y-9840270D01*
X16959468Y-9840270D02*
X16864230Y-9859317D01*
X17035658Y-9916460D02*
X17054706Y-9925984D01*
X17054706Y-9925984D02*
X17092801Y-9925984D01*
X17092801Y-9925984D02*
X17111849Y-9916460D01*
X17111849Y-9916460D02*
X17121373Y-9897412D01*
X17121373Y-9897412D02*
X17121373Y-9887889D01*
X17121373Y-9887889D02*
X17111849Y-9868841D01*
X17111849Y-9868841D02*
X17092801Y-9859317D01*
X17092801Y-9859317D02*
X17064230Y-9859317D01*
X17064230Y-9859317D02*
X17045182Y-9849793D01*
X17045182Y-9849793D02*
X17035658Y-9830746D01*
X17035658Y-9830746D02*
X17035658Y-9821222D01*
X17035658Y-9821222D02*
X17045182Y-9802174D01*
X17045182Y-9802174D02*
X17064230Y-9792650D01*
X17064230Y-9792650D02*
X17092801Y-9792650D01*
X17092801Y-9792650D02*
X17111849Y-9802174D01*
X17188039Y-10002174D02*
X17197563Y-9992650D01*
X17197563Y-9992650D02*
X17216611Y-9964079D01*
X17216611Y-9964079D02*
X17226134Y-9945031D01*
X17226134Y-9945031D02*
X17235658Y-9916460D01*
X17235658Y-9916460D02*
X17245182Y-9868841D01*
X17245182Y-9868841D02*
X17245182Y-9830746D01*
X17245182Y-9830746D02*
X17235658Y-9783127D01*
X17235658Y-9783127D02*
X17226134Y-9754555D01*
X17226134Y-9754555D02*
X17216611Y-9735508D01*
X17216611Y-9735508D02*
X17197563Y-9706936D01*
X17197563Y-9706936D02*
X17188039Y-9697412D01*
M02*
