%TF.GenerationSoftware,KiCad,Pcbnew,8.0.2-8.0.2-0~ubuntu22.04.1*%
%TF.CreationDate,2024-05-29T00:58:32-04:00*%
%TF.ProjectId,candel24h_v1,63616e64-656c-4323-9468-5f76312e6b69,rev?*%
%TF.SameCoordinates,Original*%
%TF.FileFunction,Legend,Top*%
%TF.FilePolarity,Positive*%
%FSLAX46Y46*%
G04 Gerber Fmt 4.6, Leading zero omitted, Abs format (unit mm)*
G04 Created by KiCad (PCBNEW 8.0.2-8.0.2-0~ubuntu22.04.1) date 2024-05-29 00:58:32*
%MOMM*%
%LPD*%
G01*
G04 APERTURE LIST*
%ADD10C,0.100000*%
%ADD11C,0.150000*%
%ADD12C,0.120000*%
%ADD13C,0.152400*%
G04 APERTURE END LIST*
D10*
X142506265Y-52467657D02*
X142553884Y-52420038D01*
X142553884Y-52420038D02*
X142649122Y-52372419D01*
X142649122Y-52372419D02*
X142887217Y-52372419D01*
X142887217Y-52372419D02*
X142982455Y-52420038D01*
X142982455Y-52420038D02*
X143030074Y-52467657D01*
X143030074Y-52467657D02*
X143077693Y-52562895D01*
X143077693Y-52562895D02*
X143077693Y-52658133D01*
X143077693Y-52658133D02*
X143030074Y-52800990D01*
X143030074Y-52800990D02*
X142458646Y-53372419D01*
X142458646Y-53372419D02*
X143077693Y-53372419D01*
X143934836Y-52705752D02*
X143934836Y-53372419D01*
X143696741Y-52324800D02*
X143458646Y-53039085D01*
X143458646Y-53039085D02*
X144077693Y-53039085D01*
X144458646Y-53372419D02*
X144458646Y-52372419D01*
X144887217Y-53372419D02*
X144887217Y-52848609D01*
X144887217Y-52848609D02*
X144839598Y-52753371D01*
X144839598Y-52753371D02*
X144744360Y-52705752D01*
X144744360Y-52705752D02*
X144601503Y-52705752D01*
X144601503Y-52705752D02*
X144506265Y-52753371D01*
X144506265Y-52753371D02*
X144458646Y-52800990D01*
X146553884Y-53324800D02*
X146458646Y-53372419D01*
X146458646Y-53372419D02*
X146268170Y-53372419D01*
X146268170Y-53372419D02*
X146172932Y-53324800D01*
X146172932Y-53324800D02*
X146125313Y-53277180D01*
X146125313Y-53277180D02*
X146077694Y-53181942D01*
X146077694Y-53181942D02*
X146077694Y-52896228D01*
X146077694Y-52896228D02*
X146125313Y-52800990D01*
X146125313Y-52800990D02*
X146172932Y-52753371D01*
X146172932Y-52753371D02*
X146268170Y-52705752D01*
X146268170Y-52705752D02*
X146458646Y-52705752D01*
X146458646Y-52705752D02*
X146553884Y-52753371D01*
X147411027Y-53372419D02*
X147411027Y-52848609D01*
X147411027Y-52848609D02*
X147363408Y-52753371D01*
X147363408Y-52753371D02*
X147268170Y-52705752D01*
X147268170Y-52705752D02*
X147077694Y-52705752D01*
X147077694Y-52705752D02*
X146982456Y-52753371D01*
X147411027Y-53324800D02*
X147315789Y-53372419D01*
X147315789Y-53372419D02*
X147077694Y-53372419D01*
X147077694Y-53372419D02*
X146982456Y-53324800D01*
X146982456Y-53324800D02*
X146934837Y-53229561D01*
X146934837Y-53229561D02*
X146934837Y-53134323D01*
X146934837Y-53134323D02*
X146982456Y-53039085D01*
X146982456Y-53039085D02*
X147077694Y-52991466D01*
X147077694Y-52991466D02*
X147315789Y-52991466D01*
X147315789Y-52991466D02*
X147411027Y-52943847D01*
X147887218Y-52705752D02*
X147887218Y-53372419D01*
X147887218Y-52800990D02*
X147934837Y-52753371D01*
X147934837Y-52753371D02*
X148030075Y-52705752D01*
X148030075Y-52705752D02*
X148172932Y-52705752D01*
X148172932Y-52705752D02*
X148268170Y-52753371D01*
X148268170Y-52753371D02*
X148315789Y-52848609D01*
X148315789Y-52848609D02*
X148315789Y-53372419D01*
X149220551Y-53372419D02*
X149220551Y-52372419D01*
X149220551Y-53324800D02*
X149125313Y-53372419D01*
X149125313Y-53372419D02*
X148934837Y-53372419D01*
X148934837Y-53372419D02*
X148839599Y-53324800D01*
X148839599Y-53324800D02*
X148791980Y-53277180D01*
X148791980Y-53277180D02*
X148744361Y-53181942D01*
X148744361Y-53181942D02*
X148744361Y-52896228D01*
X148744361Y-52896228D02*
X148791980Y-52800990D01*
X148791980Y-52800990D02*
X148839599Y-52753371D01*
X148839599Y-52753371D02*
X148934837Y-52705752D01*
X148934837Y-52705752D02*
X149125313Y-52705752D01*
X149125313Y-52705752D02*
X149220551Y-52753371D01*
X150077694Y-53324800D02*
X149982456Y-53372419D01*
X149982456Y-53372419D02*
X149791980Y-53372419D01*
X149791980Y-53372419D02*
X149696742Y-53324800D01*
X149696742Y-53324800D02*
X149649123Y-53229561D01*
X149649123Y-53229561D02*
X149649123Y-52848609D01*
X149649123Y-52848609D02*
X149696742Y-52753371D01*
X149696742Y-52753371D02*
X149791980Y-52705752D01*
X149791980Y-52705752D02*
X149982456Y-52705752D01*
X149982456Y-52705752D02*
X150077694Y-52753371D01*
X150077694Y-52753371D02*
X150125313Y-52848609D01*
X150125313Y-52848609D02*
X150125313Y-52943847D01*
X150125313Y-52943847D02*
X149649123Y-53039085D01*
X150696742Y-53372419D02*
X150601504Y-53324800D01*
X150601504Y-53324800D02*
X150553885Y-53229561D01*
X150553885Y-53229561D02*
X150553885Y-52372419D01*
X151744362Y-52705752D02*
X151982457Y-53372419D01*
X151982457Y-53372419D02*
X152220552Y-52705752D01*
X153125314Y-53372419D02*
X152553886Y-53372419D01*
X152839600Y-53372419D02*
X152839600Y-52372419D01*
X152839600Y-52372419D02*
X152744362Y-52515276D01*
X152744362Y-52515276D02*
X152649124Y-52610514D01*
X152649124Y-52610514D02*
X152553886Y-52658133D01*
X141696741Y-67122419D02*
X141696741Y-67360514D01*
X141458646Y-67265276D02*
X141696741Y-67360514D01*
X141696741Y-67360514D02*
X141934836Y-67265276D01*
X141553884Y-67550990D02*
X141696741Y-67360514D01*
X141696741Y-67360514D02*
X141839598Y-67550990D01*
X151494360Y-63372419D02*
X151684836Y-63372419D01*
X151684836Y-63372419D02*
X151780074Y-63420038D01*
X151780074Y-63420038D02*
X151875312Y-63515276D01*
X151875312Y-63515276D02*
X151922931Y-63705752D01*
X151922931Y-63705752D02*
X151922931Y-64039085D01*
X151922931Y-64039085D02*
X151875312Y-64229561D01*
X151875312Y-64229561D02*
X151780074Y-64324800D01*
X151780074Y-64324800D02*
X151684836Y-64372419D01*
X151684836Y-64372419D02*
X151494360Y-64372419D01*
X151494360Y-64372419D02*
X151399122Y-64324800D01*
X151399122Y-64324800D02*
X151303884Y-64229561D01*
X151303884Y-64229561D02*
X151256265Y-64039085D01*
X151256265Y-64039085D02*
X151256265Y-63705752D01*
X151256265Y-63705752D02*
X151303884Y-63515276D01*
X151303884Y-63515276D02*
X151399122Y-63420038D01*
X151399122Y-63420038D02*
X151494360Y-63372419D01*
X152351503Y-63372419D02*
X152351503Y-64181942D01*
X152351503Y-64181942D02*
X152399122Y-64277180D01*
X152399122Y-64277180D02*
X152446741Y-64324800D01*
X152446741Y-64324800D02*
X152541979Y-64372419D01*
X152541979Y-64372419D02*
X152732455Y-64372419D01*
X152732455Y-64372419D02*
X152827693Y-64324800D01*
X152827693Y-64324800D02*
X152875312Y-64277180D01*
X152875312Y-64277180D02*
X152922931Y-64181942D01*
X152922931Y-64181942D02*
X152922931Y-63372419D01*
X153256265Y-63372419D02*
X153827693Y-63372419D01*
X153541979Y-64372419D02*
X153541979Y-63372419D01*
X152053884Y-67122419D02*
X152053884Y-66122419D01*
X152530074Y-67122419D02*
X152530074Y-66122419D01*
X152530074Y-66122419D02*
X153101502Y-67122419D01*
X153101502Y-67122419D02*
X153101502Y-66122419D01*
X152053884Y-61622419D02*
X152053884Y-60622419D01*
X152530074Y-61622419D02*
X152530074Y-60622419D01*
X152530074Y-60622419D02*
X153101502Y-61622419D01*
X153101502Y-61622419D02*
X153101502Y-60622419D01*
X126208646Y-52372419D02*
X126827693Y-52372419D01*
X126827693Y-52372419D02*
X126494360Y-52753371D01*
X126494360Y-52753371D02*
X126637217Y-52753371D01*
X126637217Y-52753371D02*
X126732455Y-52800990D01*
X126732455Y-52800990D02*
X126780074Y-52848609D01*
X126780074Y-52848609D02*
X126827693Y-52943847D01*
X126827693Y-52943847D02*
X126827693Y-53181942D01*
X126827693Y-53181942D02*
X126780074Y-53277180D01*
X126780074Y-53277180D02*
X126732455Y-53324800D01*
X126732455Y-53324800D02*
X126637217Y-53372419D01*
X126637217Y-53372419D02*
X126351503Y-53372419D01*
X126351503Y-53372419D02*
X126256265Y-53324800D01*
X126256265Y-53324800D02*
X126208646Y-53277180D01*
X127161027Y-52705752D02*
X127399122Y-53372419D01*
X127399122Y-53372419D02*
X127637217Y-52705752D01*
X129053884Y-52741466D02*
X129815789Y-52741466D01*
X131553884Y-52741466D02*
X132315789Y-52741466D01*
X131934836Y-53122419D02*
X131934836Y-52360514D01*
D11*
X147953571Y-72434819D02*
X147477381Y-72434819D01*
X147477381Y-72434819D02*
X147477381Y-71434819D01*
X148286905Y-71911009D02*
X148620238Y-71911009D01*
X148763095Y-72434819D02*
X148286905Y-72434819D01*
X148286905Y-72434819D02*
X148286905Y-71434819D01*
X148286905Y-71434819D02*
X148763095Y-71434819D01*
X149191667Y-72434819D02*
X149191667Y-71434819D01*
X149191667Y-71434819D02*
X149429762Y-71434819D01*
X149429762Y-71434819D02*
X149572619Y-71482438D01*
X149572619Y-71482438D02*
X149667857Y-71577676D01*
X149667857Y-71577676D02*
X149715476Y-71672914D01*
X149715476Y-71672914D02*
X149763095Y-71863390D01*
X149763095Y-71863390D02*
X149763095Y-72006247D01*
X149763095Y-72006247D02*
X149715476Y-72196723D01*
X149715476Y-72196723D02*
X149667857Y-72291961D01*
X149667857Y-72291961D02*
X149572619Y-72387200D01*
X149572619Y-72387200D02*
X149429762Y-72434819D01*
X149429762Y-72434819D02*
X149191667Y-72434819D01*
X150144048Y-72387200D02*
X150239286Y-72434819D01*
X150239286Y-72434819D02*
X150429762Y-72434819D01*
X150429762Y-72434819D02*
X150525000Y-72387200D01*
X150525000Y-72387200D02*
X150572619Y-72291961D01*
X150572619Y-72291961D02*
X150572619Y-72244342D01*
X150572619Y-72244342D02*
X150525000Y-72149104D01*
X150525000Y-72149104D02*
X150429762Y-72101485D01*
X150429762Y-72101485D02*
X150286905Y-72101485D01*
X150286905Y-72101485D02*
X150191667Y-72053866D01*
X150191667Y-72053866D02*
X150144048Y-71958628D01*
X150144048Y-71958628D02*
X150144048Y-71911009D01*
X150144048Y-71911009D02*
X150191667Y-71815771D01*
X150191667Y-71815771D02*
X150286905Y-71768152D01*
X150286905Y-71768152D02*
X150429762Y-71768152D01*
X150429762Y-71768152D02*
X150525000Y-71815771D01*
X150905953Y-71768152D02*
X151096429Y-72434819D01*
X151096429Y-72434819D02*
X151286905Y-71958628D01*
X151286905Y-71958628D02*
X151477381Y-72434819D01*
X151477381Y-72434819D02*
X151667857Y-71768152D01*
X124666666Y-74684819D02*
X124190476Y-74684819D01*
X124190476Y-74684819D02*
X124142857Y-75161009D01*
X124142857Y-75161009D02*
X124190476Y-75113390D01*
X124190476Y-75113390D02*
X124285714Y-75065771D01*
X124285714Y-75065771D02*
X124523809Y-75065771D01*
X124523809Y-75065771D02*
X124619047Y-75113390D01*
X124619047Y-75113390D02*
X124666666Y-75161009D01*
X124666666Y-75161009D02*
X124714285Y-75256247D01*
X124714285Y-75256247D02*
X124714285Y-75494342D01*
X124714285Y-75494342D02*
X124666666Y-75589580D01*
X124666666Y-75589580D02*
X124619047Y-75637200D01*
X124619047Y-75637200D02*
X124523809Y-75684819D01*
X124523809Y-75684819D02*
X124285714Y-75684819D01*
X124285714Y-75684819D02*
X124190476Y-75637200D01*
X124190476Y-75637200D02*
X124142857Y-75589580D01*
X125142857Y-75684819D02*
X125142857Y-75018152D01*
X125142857Y-75113390D02*
X125190476Y-75065771D01*
X125190476Y-75065771D02*
X125285714Y-75018152D01*
X125285714Y-75018152D02*
X125428571Y-75018152D01*
X125428571Y-75018152D02*
X125523809Y-75065771D01*
X125523809Y-75065771D02*
X125571428Y-75161009D01*
X125571428Y-75161009D02*
X125571428Y-75684819D01*
X125571428Y-75161009D02*
X125619047Y-75065771D01*
X125619047Y-75065771D02*
X125714285Y-75018152D01*
X125714285Y-75018152D02*
X125857142Y-75018152D01*
X125857142Y-75018152D02*
X125952381Y-75065771D01*
X125952381Y-75065771D02*
X126000000Y-75161009D01*
X126000000Y-75161009D02*
X126000000Y-75684819D01*
X126428571Y-75637200D02*
X126523809Y-75684819D01*
X126523809Y-75684819D02*
X126714285Y-75684819D01*
X126714285Y-75684819D02*
X126809523Y-75637200D01*
X126809523Y-75637200D02*
X126857142Y-75541961D01*
X126857142Y-75541961D02*
X126857142Y-75494342D01*
X126857142Y-75494342D02*
X126809523Y-75399104D01*
X126809523Y-75399104D02*
X126714285Y-75351485D01*
X126714285Y-75351485D02*
X126571428Y-75351485D01*
X126571428Y-75351485D02*
X126476190Y-75303866D01*
X126476190Y-75303866D02*
X126428571Y-75208628D01*
X126428571Y-75208628D02*
X126428571Y-75161009D01*
X126428571Y-75161009D02*
X126476190Y-75065771D01*
X126476190Y-75065771D02*
X126571428Y-75018152D01*
X126571428Y-75018152D02*
X126714285Y-75018152D01*
X126714285Y-75018152D02*
X126809523Y-75065771D01*
X124333333Y-65780057D02*
X124380952Y-65732438D01*
X124380952Y-65732438D02*
X124476190Y-65684819D01*
X124476190Y-65684819D02*
X124714285Y-65684819D01*
X124714285Y-65684819D02*
X124809523Y-65732438D01*
X124809523Y-65732438D02*
X124857142Y-65780057D01*
X124857142Y-65780057D02*
X124904761Y-65875295D01*
X124904761Y-65875295D02*
X124904761Y-65970533D01*
X124904761Y-65970533D02*
X124857142Y-66113390D01*
X124857142Y-66113390D02*
X124285714Y-66684819D01*
X124285714Y-66684819D02*
X124904761Y-66684819D01*
X125285714Y-65780057D02*
X125333333Y-65732438D01*
X125333333Y-65732438D02*
X125428571Y-65684819D01*
X125428571Y-65684819D02*
X125666666Y-65684819D01*
X125666666Y-65684819D02*
X125761904Y-65732438D01*
X125761904Y-65732438D02*
X125809523Y-65780057D01*
X125809523Y-65780057D02*
X125857142Y-65875295D01*
X125857142Y-65875295D02*
X125857142Y-65970533D01*
X125857142Y-65970533D02*
X125809523Y-66113390D01*
X125809523Y-66113390D02*
X125238095Y-66684819D01*
X125238095Y-66684819D02*
X125857142Y-66684819D01*
X126238095Y-66637200D02*
X126333333Y-66684819D01*
X126333333Y-66684819D02*
X126523809Y-66684819D01*
X126523809Y-66684819D02*
X126619047Y-66637200D01*
X126619047Y-66637200D02*
X126666666Y-66541961D01*
X126666666Y-66541961D02*
X126666666Y-66494342D01*
X126666666Y-66494342D02*
X126619047Y-66399104D01*
X126619047Y-66399104D02*
X126523809Y-66351485D01*
X126523809Y-66351485D02*
X126380952Y-66351485D01*
X126380952Y-66351485D02*
X126285714Y-66303866D01*
X126285714Y-66303866D02*
X126238095Y-66208628D01*
X126238095Y-66208628D02*
X126238095Y-66161009D01*
X126238095Y-66161009D02*
X126285714Y-66065771D01*
X126285714Y-66065771D02*
X126380952Y-66018152D01*
X126380952Y-66018152D02*
X126523809Y-66018152D01*
X126523809Y-66018152D02*
X126619047Y-66065771D01*
X124285714Y-56780057D02*
X124333333Y-56732438D01*
X124333333Y-56732438D02*
X124428571Y-56684819D01*
X124428571Y-56684819D02*
X124666666Y-56684819D01*
X124666666Y-56684819D02*
X124761904Y-56732438D01*
X124761904Y-56732438D02*
X124809523Y-56780057D01*
X124809523Y-56780057D02*
X124857142Y-56875295D01*
X124857142Y-56875295D02*
X124857142Y-56970533D01*
X124857142Y-56970533D02*
X124809523Y-57113390D01*
X124809523Y-57113390D02*
X124238095Y-57684819D01*
X124238095Y-57684819D02*
X124857142Y-57684819D01*
X125714285Y-57018152D02*
X125714285Y-57684819D01*
X125476190Y-56637200D02*
X125238095Y-57351485D01*
X125238095Y-57351485D02*
X125857142Y-57351485D01*
X126238095Y-57684819D02*
X126238095Y-56684819D01*
X126666666Y-57684819D02*
X126666666Y-57161009D01*
X126666666Y-57161009D02*
X126619047Y-57065771D01*
X126619047Y-57065771D02*
X126523809Y-57018152D01*
X126523809Y-57018152D02*
X126380952Y-57018152D01*
X126380952Y-57018152D02*
X126285714Y-57065771D01*
X126285714Y-57065771D02*
X126238095Y-57113390D01*
X126621009Y-55738095D02*
X126668628Y-55595238D01*
X126668628Y-55595238D02*
X126716247Y-55547619D01*
X126716247Y-55547619D02*
X126811485Y-55500000D01*
X126811485Y-55500000D02*
X126954342Y-55500000D01*
X126954342Y-55500000D02*
X127049580Y-55547619D01*
X127049580Y-55547619D02*
X127097200Y-55595238D01*
X127097200Y-55595238D02*
X127144819Y-55690476D01*
X127144819Y-55690476D02*
X127144819Y-56071428D01*
X127144819Y-56071428D02*
X126144819Y-56071428D01*
X126144819Y-56071428D02*
X126144819Y-55738095D01*
X126144819Y-55738095D02*
X126192438Y-55642857D01*
X126192438Y-55642857D02*
X126240057Y-55595238D01*
X126240057Y-55595238D02*
X126335295Y-55547619D01*
X126335295Y-55547619D02*
X126430533Y-55547619D01*
X126430533Y-55547619D02*
X126525771Y-55595238D01*
X126525771Y-55595238D02*
X126573390Y-55642857D01*
X126573390Y-55642857D02*
X126621009Y-55738095D01*
X126621009Y-55738095D02*
X126621009Y-56071428D01*
X126859104Y-55119047D02*
X126859104Y-54642857D01*
X127144819Y-55214285D02*
X126144819Y-54880952D01*
X126144819Y-54880952D02*
X127144819Y-54547619D01*
X126144819Y-54357142D02*
X126144819Y-53785714D01*
X127144819Y-54071428D02*
X126144819Y-54071428D01*
X148083333Y-59157200D02*
X148226190Y-59204819D01*
X148226190Y-59204819D02*
X148464285Y-59204819D01*
X148464285Y-59204819D02*
X148559523Y-59157200D01*
X148559523Y-59157200D02*
X148607142Y-59109580D01*
X148607142Y-59109580D02*
X148654761Y-59014342D01*
X148654761Y-59014342D02*
X148654761Y-58919104D01*
X148654761Y-58919104D02*
X148607142Y-58823866D01*
X148607142Y-58823866D02*
X148559523Y-58776247D01*
X148559523Y-58776247D02*
X148464285Y-58728628D01*
X148464285Y-58728628D02*
X148273809Y-58681009D01*
X148273809Y-58681009D02*
X148178571Y-58633390D01*
X148178571Y-58633390D02*
X148130952Y-58585771D01*
X148130952Y-58585771D02*
X148083333Y-58490533D01*
X148083333Y-58490533D02*
X148083333Y-58395295D01*
X148083333Y-58395295D02*
X148130952Y-58300057D01*
X148130952Y-58300057D02*
X148178571Y-58252438D01*
X148178571Y-58252438D02*
X148273809Y-58204819D01*
X148273809Y-58204819D02*
X148511904Y-58204819D01*
X148511904Y-58204819D02*
X148654761Y-58252438D01*
X149083333Y-59204819D02*
X149083333Y-58204819D01*
X149083333Y-58204819D02*
X149464285Y-58204819D01*
X149464285Y-58204819D02*
X149559523Y-58252438D01*
X149559523Y-58252438D02*
X149607142Y-58300057D01*
X149607142Y-58300057D02*
X149654761Y-58395295D01*
X149654761Y-58395295D02*
X149654761Y-58538152D01*
X149654761Y-58538152D02*
X149607142Y-58633390D01*
X149607142Y-58633390D02*
X149559523Y-58681009D01*
X149559523Y-58681009D02*
X149464285Y-58728628D01*
X149464285Y-58728628D02*
X149083333Y-58728628D01*
X150083333Y-59204819D02*
X150083333Y-58204819D01*
X150083333Y-58204819D02*
X150321428Y-58204819D01*
X150321428Y-58204819D02*
X150464285Y-58252438D01*
X150464285Y-58252438D02*
X150559523Y-58347676D01*
X150559523Y-58347676D02*
X150607142Y-58442914D01*
X150607142Y-58442914D02*
X150654761Y-58633390D01*
X150654761Y-58633390D02*
X150654761Y-58776247D01*
X150654761Y-58776247D02*
X150607142Y-58966723D01*
X150607142Y-58966723D02*
X150559523Y-59061961D01*
X150559523Y-59061961D02*
X150464285Y-59157200D01*
X150464285Y-59157200D02*
X150321428Y-59204819D01*
X150321428Y-59204819D02*
X150083333Y-59204819D01*
X150940476Y-58204819D02*
X151511904Y-58204819D01*
X151226190Y-59204819D02*
X151226190Y-58204819D01*
D10*
X142904761Y-66862180D02*
X142857142Y-66909800D01*
X142857142Y-66909800D02*
X142714285Y-66957419D01*
X142714285Y-66957419D02*
X142619047Y-66957419D01*
X142619047Y-66957419D02*
X142476190Y-66909800D01*
X142476190Y-66909800D02*
X142380952Y-66814561D01*
X142380952Y-66814561D02*
X142333333Y-66719323D01*
X142333333Y-66719323D02*
X142285714Y-66528847D01*
X142285714Y-66528847D02*
X142285714Y-66385990D01*
X142285714Y-66385990D02*
X142333333Y-66195514D01*
X142333333Y-66195514D02*
X142380952Y-66100276D01*
X142380952Y-66100276D02*
X142476190Y-66005038D01*
X142476190Y-66005038D02*
X142619047Y-65957419D01*
X142619047Y-65957419D02*
X142714285Y-65957419D01*
X142714285Y-65957419D02*
X142857142Y-66005038D01*
X142857142Y-66005038D02*
X142904761Y-66052657D01*
X143809523Y-66957419D02*
X143333333Y-66957419D01*
X143333333Y-66957419D02*
X143333333Y-65957419D01*
X144142857Y-66957419D02*
X144142857Y-65957419D01*
X144714285Y-66957419D02*
X144285714Y-66385990D01*
X144714285Y-65957419D02*
X144142857Y-66528847D01*
D11*
X131404761Y-57538152D02*
X131785713Y-57538152D01*
X131547618Y-58204819D02*
X131547618Y-57347676D01*
X131547618Y-57347676D02*
X131595237Y-57252438D01*
X131595237Y-57252438D02*
X131690475Y-57204819D01*
X131690475Y-57204819D02*
X131785713Y-57204819D01*
X132261904Y-58204819D02*
X132166666Y-58157200D01*
X132166666Y-58157200D02*
X132119047Y-58061961D01*
X132119047Y-58061961D02*
X132119047Y-57204819D01*
X132642857Y-58204819D02*
X132642857Y-57538152D01*
X132642857Y-57204819D02*
X132595238Y-57252438D01*
X132595238Y-57252438D02*
X132642857Y-57300057D01*
X132642857Y-57300057D02*
X132690476Y-57252438D01*
X132690476Y-57252438D02*
X132642857Y-57204819D01*
X132642857Y-57204819D02*
X132642857Y-57300057D01*
X133119047Y-57538152D02*
X133119047Y-58538152D01*
X133119047Y-57585771D02*
X133214285Y-57538152D01*
X133214285Y-57538152D02*
X133404761Y-57538152D01*
X133404761Y-57538152D02*
X133499999Y-57585771D01*
X133499999Y-57585771D02*
X133547618Y-57633390D01*
X133547618Y-57633390D02*
X133595237Y-57728628D01*
X133595237Y-57728628D02*
X133595237Y-58014342D01*
X133595237Y-58014342D02*
X133547618Y-58109580D01*
X133547618Y-58109580D02*
X133499999Y-58157200D01*
X133499999Y-58157200D02*
X133404761Y-58204819D01*
X133404761Y-58204819D02*
X133214285Y-58204819D01*
X133214285Y-58204819D02*
X133119047Y-58157200D01*
X133880952Y-57538152D02*
X134261904Y-57538152D01*
X134023809Y-58204819D02*
X134023809Y-57347676D01*
X134023809Y-57347676D02*
X134071428Y-57252438D01*
X134071428Y-57252438D02*
X134166666Y-57204819D01*
X134166666Y-57204819D02*
X134261904Y-57204819D01*
X134738095Y-58204819D02*
X134642857Y-58157200D01*
X134642857Y-58157200D02*
X134595238Y-58061961D01*
X134595238Y-58061961D02*
X134595238Y-57204819D01*
X135261905Y-58204819D02*
X135166667Y-58157200D01*
X135166667Y-58157200D02*
X135119048Y-58109580D01*
X135119048Y-58109580D02*
X135071429Y-58014342D01*
X135071429Y-58014342D02*
X135071429Y-57728628D01*
X135071429Y-57728628D02*
X135119048Y-57633390D01*
X135119048Y-57633390D02*
X135166667Y-57585771D01*
X135166667Y-57585771D02*
X135261905Y-57538152D01*
X135261905Y-57538152D02*
X135404762Y-57538152D01*
X135404762Y-57538152D02*
X135500000Y-57585771D01*
X135500000Y-57585771D02*
X135547619Y-57633390D01*
X135547619Y-57633390D02*
X135595238Y-57728628D01*
X135595238Y-57728628D02*
X135595238Y-58014342D01*
X135595238Y-58014342D02*
X135547619Y-58109580D01*
X135547619Y-58109580D02*
X135500000Y-58157200D01*
X135500000Y-58157200D02*
X135404762Y-58204819D01*
X135404762Y-58204819D02*
X135261905Y-58204819D01*
X136023810Y-57538152D02*
X136023810Y-58538152D01*
X136023810Y-57585771D02*
X136119048Y-57538152D01*
X136119048Y-57538152D02*
X136309524Y-57538152D01*
X136309524Y-57538152D02*
X136404762Y-57585771D01*
X136404762Y-57585771D02*
X136452381Y-57633390D01*
X136452381Y-57633390D02*
X136500000Y-57728628D01*
X136500000Y-57728628D02*
X136500000Y-58014342D01*
X136500000Y-58014342D02*
X136452381Y-58109580D01*
X136452381Y-58109580D02*
X136404762Y-58157200D01*
X136404762Y-58157200D02*
X136309524Y-58204819D01*
X136309524Y-58204819D02*
X136119048Y-58204819D01*
X136119048Y-58204819D02*
X136023810Y-58157200D01*
X132190400Y-58612618D02*
X132190400Y-58850713D01*
X131952305Y-58755475D02*
X132190400Y-58850713D01*
X132190400Y-58850713D02*
X132428495Y-58755475D01*
X132047543Y-59041189D02*
X132190400Y-58850713D01*
X132190400Y-58850713D02*
X132333257Y-59041189D01*
X132190400Y-58612618D02*
X132190400Y-58850713D01*
X131952305Y-58755475D02*
X132190400Y-58850713D01*
X132190400Y-58850713D02*
X132428495Y-58755475D01*
X132047543Y-59041189D02*
X132190400Y-58850713D01*
X132190400Y-58850713D02*
X132333257Y-59041189D01*
X133169047Y-75354819D02*
X133169047Y-74354819D01*
X133169047Y-75307200D02*
X133073809Y-75354819D01*
X133073809Y-75354819D02*
X132883333Y-75354819D01*
X132883333Y-75354819D02*
X132788095Y-75307200D01*
X132788095Y-75307200D02*
X132740476Y-75259580D01*
X132740476Y-75259580D02*
X132692857Y-75164342D01*
X132692857Y-75164342D02*
X132692857Y-74878628D01*
X132692857Y-74878628D02*
X132740476Y-74783390D01*
X132740476Y-74783390D02*
X132788095Y-74735771D01*
X132788095Y-74735771D02*
X132883333Y-74688152D01*
X132883333Y-74688152D02*
X133073809Y-74688152D01*
X133073809Y-74688152D02*
X133169047Y-74735771D01*
X133645238Y-75354819D02*
X133645238Y-74688152D01*
X133645238Y-74354819D02*
X133597619Y-74402438D01*
X133597619Y-74402438D02*
X133645238Y-74450057D01*
X133645238Y-74450057D02*
X133692857Y-74402438D01*
X133692857Y-74402438D02*
X133645238Y-74354819D01*
X133645238Y-74354819D02*
X133645238Y-74450057D01*
X134026190Y-74688152D02*
X134264285Y-75354819D01*
X134264285Y-75354819D02*
X134502380Y-74688152D01*
X135407142Y-75354819D02*
X134835714Y-75354819D01*
X135121428Y-75354819D02*
X135121428Y-74354819D01*
X135121428Y-74354819D02*
X135026190Y-74497676D01*
X135026190Y-74497676D02*
X134930952Y-74592914D01*
X134930952Y-74592914D02*
X134835714Y-74640533D01*
X133119047Y-64854819D02*
X133119047Y-63854819D01*
X133119047Y-64807200D02*
X133023809Y-64854819D01*
X133023809Y-64854819D02*
X132833333Y-64854819D01*
X132833333Y-64854819D02*
X132738095Y-64807200D01*
X132738095Y-64807200D02*
X132690476Y-64759580D01*
X132690476Y-64759580D02*
X132642857Y-64664342D01*
X132642857Y-64664342D02*
X132642857Y-64378628D01*
X132642857Y-64378628D02*
X132690476Y-64283390D01*
X132690476Y-64283390D02*
X132738095Y-64235771D01*
X132738095Y-64235771D02*
X132833333Y-64188152D01*
X132833333Y-64188152D02*
X133023809Y-64188152D01*
X133023809Y-64188152D02*
X133119047Y-64235771D01*
X133595238Y-64854819D02*
X133595238Y-64188152D01*
X133595238Y-63854819D02*
X133547619Y-63902438D01*
X133547619Y-63902438D02*
X133595238Y-63950057D01*
X133595238Y-63950057D02*
X133642857Y-63902438D01*
X133642857Y-63902438D02*
X133595238Y-63854819D01*
X133595238Y-63854819D02*
X133595238Y-63950057D01*
X133976190Y-64188152D02*
X134214285Y-64854819D01*
X134214285Y-64854819D02*
X134452380Y-64188152D01*
X134738095Y-63854819D02*
X135357142Y-63854819D01*
X135357142Y-63854819D02*
X135023809Y-64235771D01*
X135023809Y-64235771D02*
X135166666Y-64235771D01*
X135166666Y-64235771D02*
X135261904Y-64283390D01*
X135261904Y-64283390D02*
X135309523Y-64331009D01*
X135309523Y-64331009D02*
X135357142Y-64426247D01*
X135357142Y-64426247D02*
X135357142Y-64664342D01*
X135357142Y-64664342D02*
X135309523Y-64759580D01*
X135309523Y-64759580D02*
X135261904Y-64807200D01*
X135261904Y-64807200D02*
X135166666Y-64854819D01*
X135166666Y-64854819D02*
X134880952Y-64854819D01*
X134880952Y-64854819D02*
X134785714Y-64807200D01*
X134785714Y-64807200D02*
X134738095Y-64759580D01*
X133169047Y-69854819D02*
X133169047Y-68854819D01*
X133169047Y-69807200D02*
X133073809Y-69854819D01*
X133073809Y-69854819D02*
X132883333Y-69854819D01*
X132883333Y-69854819D02*
X132788095Y-69807200D01*
X132788095Y-69807200D02*
X132740476Y-69759580D01*
X132740476Y-69759580D02*
X132692857Y-69664342D01*
X132692857Y-69664342D02*
X132692857Y-69378628D01*
X132692857Y-69378628D02*
X132740476Y-69283390D01*
X132740476Y-69283390D02*
X132788095Y-69235771D01*
X132788095Y-69235771D02*
X132883333Y-69188152D01*
X132883333Y-69188152D02*
X133073809Y-69188152D01*
X133073809Y-69188152D02*
X133169047Y-69235771D01*
X133645238Y-69854819D02*
X133645238Y-69188152D01*
X133645238Y-68854819D02*
X133597619Y-68902438D01*
X133597619Y-68902438D02*
X133645238Y-68950057D01*
X133645238Y-68950057D02*
X133692857Y-68902438D01*
X133692857Y-68902438D02*
X133645238Y-68854819D01*
X133645238Y-68854819D02*
X133645238Y-68950057D01*
X134026190Y-69188152D02*
X134264285Y-69854819D01*
X134264285Y-69854819D02*
X134502380Y-69188152D01*
X134835714Y-68950057D02*
X134883333Y-68902438D01*
X134883333Y-68902438D02*
X134978571Y-68854819D01*
X134978571Y-68854819D02*
X135216666Y-68854819D01*
X135216666Y-68854819D02*
X135311904Y-68902438D01*
X135311904Y-68902438D02*
X135359523Y-68950057D01*
X135359523Y-68950057D02*
X135407142Y-69045295D01*
X135407142Y-69045295D02*
X135407142Y-69140533D01*
X135407142Y-69140533D02*
X135359523Y-69283390D01*
X135359523Y-69283390D02*
X134788095Y-69854819D01*
X134788095Y-69854819D02*
X135407142Y-69854819D01*
X142621696Y-61954819D02*
X143193124Y-61954819D01*
X142907410Y-62954819D02*
X142907410Y-61954819D01*
X144097886Y-62954819D02*
X143764553Y-62478628D01*
X143526458Y-62954819D02*
X143526458Y-61954819D01*
X143526458Y-61954819D02*
X143907410Y-61954819D01*
X143907410Y-61954819D02*
X144002648Y-62002438D01*
X144002648Y-62002438D02*
X144050267Y-62050057D01*
X144050267Y-62050057D02*
X144097886Y-62145295D01*
X144097886Y-62145295D02*
X144097886Y-62288152D01*
X144097886Y-62288152D02*
X144050267Y-62383390D01*
X144050267Y-62383390D02*
X144002648Y-62431009D01*
X144002648Y-62431009D02*
X143907410Y-62478628D01*
X143907410Y-62478628D02*
X143526458Y-62478628D01*
X144478839Y-62050057D02*
X144526458Y-62002438D01*
X144526458Y-62002438D02*
X144621696Y-61954819D01*
X144621696Y-61954819D02*
X144859791Y-61954819D01*
X144859791Y-61954819D02*
X144955029Y-62002438D01*
X144955029Y-62002438D02*
X145002648Y-62050057D01*
X145002648Y-62050057D02*
X145050267Y-62145295D01*
X145050267Y-62145295D02*
X145050267Y-62240533D01*
X145050267Y-62240533D02*
X145002648Y-62383390D01*
X145002648Y-62383390D02*
X144431220Y-62954819D01*
X144431220Y-62954819D02*
X145050267Y-62954819D01*
X142535595Y-55638019D02*
X143107023Y-55638019D01*
X142821309Y-56638019D02*
X142821309Y-55638019D01*
X144011785Y-56638019D02*
X143678452Y-56161828D01*
X143440357Y-56638019D02*
X143440357Y-55638019D01*
X143440357Y-55638019D02*
X143821309Y-55638019D01*
X143821309Y-55638019D02*
X143916547Y-55685638D01*
X143916547Y-55685638D02*
X143964166Y-55733257D01*
X143964166Y-55733257D02*
X144011785Y-55828495D01*
X144011785Y-55828495D02*
X144011785Y-55971352D01*
X144011785Y-55971352D02*
X143964166Y-56066590D01*
X143964166Y-56066590D02*
X143916547Y-56114209D01*
X143916547Y-56114209D02*
X143821309Y-56161828D01*
X143821309Y-56161828D02*
X143440357Y-56161828D01*
X144964166Y-56638019D02*
X144392738Y-56638019D01*
X144678452Y-56638019D02*
X144678452Y-55638019D01*
X144678452Y-55638019D02*
X144583214Y-55780876D01*
X144583214Y-55780876D02*
X144487976Y-55876114D01*
X144487976Y-55876114D02*
X144392738Y-55923733D01*
X133563333Y-81034819D02*
X133230000Y-80558628D01*
X132991905Y-81034819D02*
X132991905Y-80034819D01*
X132991905Y-80034819D02*
X133372857Y-80034819D01*
X133372857Y-80034819D02*
X133468095Y-80082438D01*
X133468095Y-80082438D02*
X133515714Y-80130057D01*
X133515714Y-80130057D02*
X133563333Y-80225295D01*
X133563333Y-80225295D02*
X133563333Y-80368152D01*
X133563333Y-80368152D02*
X133515714Y-80463390D01*
X133515714Y-80463390D02*
X133468095Y-80511009D01*
X133468095Y-80511009D02*
X133372857Y-80558628D01*
X133372857Y-80558628D02*
X132991905Y-80558628D01*
X134515714Y-81034819D02*
X133944286Y-81034819D01*
X134230000Y-81034819D02*
X134230000Y-80034819D01*
X134230000Y-80034819D02*
X134134762Y-80177676D01*
X134134762Y-80177676D02*
X134039524Y-80272914D01*
X134039524Y-80272914D02*
X133944286Y-80320533D01*
X142877142Y-72394819D02*
X142400952Y-72394819D01*
X142400952Y-72394819D02*
X142400952Y-71394819D01*
X143210476Y-71871009D02*
X143543809Y-71871009D01*
X143686666Y-72394819D02*
X143210476Y-72394819D01*
X143210476Y-72394819D02*
X143210476Y-71394819D01*
X143210476Y-71394819D02*
X143686666Y-71394819D01*
X144115238Y-72394819D02*
X144115238Y-71394819D01*
X144115238Y-71394819D02*
X144353333Y-71394819D01*
X144353333Y-71394819D02*
X144496190Y-71442438D01*
X144496190Y-71442438D02*
X144591428Y-71537676D01*
X144591428Y-71537676D02*
X144639047Y-71632914D01*
X144639047Y-71632914D02*
X144686666Y-71823390D01*
X144686666Y-71823390D02*
X144686666Y-71966247D01*
X144686666Y-71966247D02*
X144639047Y-72156723D01*
X144639047Y-72156723D02*
X144591428Y-72251961D01*
X144591428Y-72251961D02*
X144496190Y-72347200D01*
X144496190Y-72347200D02*
X144353333Y-72394819D01*
X144353333Y-72394819D02*
X144115238Y-72394819D01*
D12*
%TO.C,LEDsw*%
X148195000Y-76020000D02*
X148195000Y-78620000D01*
X148195000Y-76020000D02*
X150855000Y-76020000D01*
X148195000Y-78620000D02*
X150855000Y-78620000D01*
X149525000Y-73420000D02*
X150855000Y-73420000D01*
X150855000Y-73420000D02*
X150855000Y-74750000D01*
X150855000Y-76020000D02*
X150855000Y-78620000D01*
%TO.C,5ms*%
X124170000Y-79270000D02*
X124170000Y-81870000D01*
X124170000Y-79270000D02*
X126830000Y-79270000D01*
X124170000Y-81870000D02*
X126830000Y-81870000D01*
X125500000Y-76670000D02*
X126830000Y-76670000D01*
X126830000Y-76670000D02*
X126830000Y-78000000D01*
X126830000Y-79270000D02*
X126830000Y-81870000D01*
%TO.C,22s*%
X124170000Y-70270000D02*
X124170000Y-72870000D01*
X124170000Y-70270000D02*
X126830000Y-70270000D01*
X124170000Y-72870000D02*
X126830000Y-72870000D01*
X125500000Y-67670000D02*
X126830000Y-67670000D01*
X126830000Y-67670000D02*
X126830000Y-69000000D01*
X126830000Y-70270000D02*
X126830000Y-72870000D01*
%TO.C,24h*%
X124170000Y-61270000D02*
X124170000Y-63870000D01*
X124170000Y-61270000D02*
X126830000Y-61270000D01*
X124170000Y-63870000D02*
X126830000Y-63870000D01*
X125500000Y-58670000D02*
X126830000Y-58670000D01*
X126830000Y-58670000D02*
X126830000Y-60000000D01*
X126830000Y-61270000D02*
X126830000Y-63870000D01*
%TO.C,BAT*%
X130730000Y-56330000D02*
X133330000Y-56330000D01*
X130730000Y-56330000D02*
X130730000Y-53670000D01*
X133330000Y-56330000D02*
X133330000Y-53670000D01*
X128130000Y-55000000D02*
X128130000Y-53670000D01*
X128130000Y-53670000D02*
X129460000Y-53670000D01*
X130730000Y-53670000D02*
X133330000Y-53670000D01*
%TO.C,SPDT*%
X151080000Y-65060000D02*
X151080000Y-59920000D01*
X151080000Y-65060000D02*
X148420000Y-65060000D01*
X151080000Y-59920000D02*
X148420000Y-59920000D01*
X149750000Y-67660000D02*
X148420000Y-67660000D01*
X148420000Y-67660000D02*
X148420000Y-66330000D01*
X148420000Y-65060000D02*
X148420000Y-59920000D01*
D13*
%TO.C,flipflop*%
X133005954Y-62376999D02*
X134938446Y-62376999D01*
X134938446Y-60122999D02*
X133005954Y-60122999D01*
D12*
%TO.C,div1*%
X133340000Y-75990000D02*
X134750000Y-75990000D01*
X133350000Y-78310000D02*
X134750000Y-78310000D01*
X132970000Y-76040000D02*
X132730000Y-75710000D01*
X133210000Y-75710000D01*
X132970000Y-76040000D01*
G36*
X132970000Y-76040000D02*
G01*
X132730000Y-75710000D01*
X133210000Y-75710000D01*
X132970000Y-76040000D01*
G37*
%TO.C,div3*%
X133290000Y-65490000D02*
X134700000Y-65490000D01*
X133300000Y-67810000D02*
X134700000Y-67810000D01*
X132920000Y-65540000D02*
X132680000Y-65210000D01*
X133160000Y-65210000D01*
X132920000Y-65540000D01*
G36*
X132920000Y-65540000D02*
G01*
X132680000Y-65210000D01*
X133160000Y-65210000D01*
X132920000Y-65540000D01*
G37*
%TO.C,div2*%
X133340000Y-70490000D02*
X134750000Y-70490000D01*
X133350000Y-72810000D02*
X134750000Y-72810000D01*
X132970000Y-70540000D02*
X132730000Y-70210000D01*
X133210000Y-70210000D01*
X132970000Y-70540000D01*
G36*
X132970000Y-70540000D02*
G01*
X132730000Y-70210000D01*
X133210000Y-70210000D01*
X132970000Y-70540000D01*
G37*
D13*
%TO.C,TR2*%
X141216601Y-63820800D02*
G75*
G02*
X140962601Y-63820800I-127000J0D01*
G01*
X140962601Y-63820800D02*
G75*
G02*
X141216601Y-63820800I127000J0D01*
G01*
X143543241Y-63325500D02*
X144223961Y-63325500D01*
X145534601Y-63325500D02*
X145534601Y-61674500D01*
X145534601Y-61674500D02*
X144495741Y-61674500D01*
X142232601Y-61674500D02*
X142232601Y-63325500D01*
X143271461Y-61674500D02*
X142232601Y-61674500D01*
%TO.C,TR1*%
X141130500Y-57504000D02*
G75*
G02*
X140876500Y-57504000I-127000J0D01*
G01*
X140876500Y-57504000D02*
G75*
G02*
X141130500Y-57504000I127000J0D01*
G01*
X143457140Y-57008700D02*
X144137860Y-57008700D01*
X145448500Y-57008700D02*
X145448500Y-55357700D01*
X145448500Y-55357700D02*
X144409640Y-55357700D01*
X142146500Y-55357700D02*
X142146500Y-57008700D01*
X143185360Y-55357700D02*
X142146500Y-55357700D01*
D12*
%TO.C,R1*%
X133380000Y-82500000D02*
X134000000Y-82500000D01*
X133380000Y-82500000D02*
G75*
G02*
X131540000Y-82500000I-920000J0D01*
G01*
X131540000Y-82500000D02*
G75*
G02*
X133380000Y-82500000I920000J0D01*
G01*
%TO.C,LED*%
X141960000Y-77650000D02*
X141960000Y-81510000D01*
X141960000Y-77650000D02*
X145080000Y-77650000D01*
X142250000Y-74980000D02*
X142250000Y-74980000D01*
X142250000Y-74980000D02*
X142250000Y-77650000D01*
X142250000Y-77650000D02*
X142250000Y-74980000D01*
X142250000Y-77650000D02*
X142250000Y-77650000D01*
X144790000Y-74980000D02*
X144790000Y-74980000D01*
X144790000Y-74980000D02*
X144790000Y-77650000D01*
X144790000Y-77650000D02*
X144790000Y-74980000D01*
X144790000Y-77650000D02*
X144790000Y-77650000D01*
X145080000Y-77650000D02*
X145080000Y-81510000D01*
X145080000Y-77650000D02*
X145480000Y-77650000D01*
X145080000Y-78770000D02*
X145080000Y-77650000D01*
X145480000Y-77650000D02*
X145480000Y-78770000D01*
X145480000Y-78770000D02*
X145080000Y-78770000D01*
X145080000Y-81510000D02*
G75*
G02*
X141960000Y-81510000I-1560000J0D01*
G01*
%TD*%
M02*
