%TF.GenerationSoftware,KiCad,Pcbnew,8.0.2-8.0.2-0~ubuntu22.04.1*%
%TF.CreationDate,2024-05-29T00:58:32-04:00*%
%TF.ProjectId,candel24h_v1,63616e64-656c-4323-9468-5f76312e6b69,rev?*%
%TF.SameCoordinates,Original*%
%TF.FileFunction,Copper,L1,Top*%
%TF.FilePolarity,Positive*%
%FSLAX46Y46*%
G04 Gerber Fmt 4.6, Leading zero omitted, Abs format (unit mm)*
G04 Created by KiCad (PCBNEW 8.0.2-8.0.2-0~ubuntu22.04.1) date 2024-05-29 00:58:32*
%MOMM*%
%LPD*%
G01*
G04 APERTURE LIST*
G04 Aperture macros list*
%AMRoundRect*
0 Rectangle with rounded corners*
0 $1 Rounding radius*
0 $2 $3 $4 $5 $6 $7 $8 $9 X,Y pos of 4 corners*
0 Add a 4 corners polygon primitive as box body*
4,1,4,$2,$3,$4,$5,$6,$7,$8,$9,$2,$3,0*
0 Add four circle primitives for the rounded corners*
1,1,$1+$1,$2,$3*
1,1,$1+$1,$4,$5*
1,1,$1+$1,$6,$7*
1,1,$1+$1,$8,$9*
0 Add four rect primitives between the rounded corners*
20,1,$1+$1,$2,$3,$4,$5,0*
20,1,$1+$1,$4,$5,$6,$7,0*
20,1,$1+$1,$6,$7,$8,$9,0*
20,1,$1+$1,$8,$9,$2,$3,0*%
G04 Aperture macros list end*
%TA.AperFunction,ComponentPad*%
%ADD10R,1.700000X1.700000*%
%TD*%
%TA.AperFunction,ComponentPad*%
%ADD11O,1.700000X1.700000*%
%TD*%
%TA.AperFunction,SMDPad,CuDef*%
%ADD12RoundRect,0.114829X-0.410171X-0.235171X0.410171X-0.235171X0.410171X0.235171X-0.410171X0.235171X0*%
%TD*%
%TA.AperFunction,SMDPad,CuDef*%
%ADD13R,1.050000X0.700000*%
%TD*%
%TA.AperFunction,SMDPad,CuDef*%
%ADD14R,0.755599X0.199200*%
%TD*%
%TA.AperFunction,SMDPad,CuDef*%
%ADD15RoundRect,0.100000X-0.225000X-0.100000X0.225000X-0.100000X0.225000X0.100000X-0.225000X0.100000X0*%
%TD*%
%TA.AperFunction,SMDPad,CuDef*%
%ADD16R,0.558800X1.219200*%
%TD*%
%TA.AperFunction,ComponentPad*%
%ADD17C,1.400000*%
%TD*%
%TA.AperFunction,ComponentPad*%
%ADD18O,1.400000X1.400000*%
%TD*%
%TA.AperFunction,ComponentPad*%
%ADD19R,1.800000X1.800000*%
%TD*%
%TA.AperFunction,ComponentPad*%
%ADD20C,1.800000*%
%TD*%
%TA.AperFunction,ViaPad*%
%ADD21C,0.600000*%
%TD*%
%TA.AperFunction,Conductor*%
%ADD22C,0.200000*%
%TD*%
G04 APERTURE END LIST*
D10*
%TO.P,LEDsw,1,Pin_1*%
%TO.N,Net-(CLK1-Vdd)*%
X149525000Y-74750000D03*
D11*
%TO.P,LEDsw,2,Pin_2*%
%TO.N,Net-(D1-A)*%
X149525000Y-77290000D03*
%TD*%
D10*
%TO.P,5ms,1,Pin_1*%
%TO.N,Net-(J5-Pin_1)*%
X125500000Y-78000000D03*
D11*
%TO.P,5ms,2,Pin_2*%
%TO.N,Net-(J5-Pin_2)*%
X125500000Y-80540000D03*
%TD*%
D10*
%TO.P,22s,1,Pin_1*%
%TO.N,Net-(J4-Pin_1)*%
X125500000Y-69000000D03*
D11*
%TO.P,22s,2,Pin_2*%
%TO.N,Net-(J4-Pin_2)*%
X125500000Y-71540000D03*
%TD*%
D10*
%TO.P,24h,1,Pin_1*%
%TO.N,Net-(J3-Pin_1)*%
X125500000Y-60000000D03*
D11*
%TO.P,24h,2,Pin_2*%
%TO.N,Net-(J3-Pin_2)*%
X125500000Y-62540000D03*
%TD*%
D10*
%TO.P,BAT,1,Pin_1*%
%TO.N,Net-(CLK1-GND)*%
X129460000Y-55000000D03*
D11*
%TO.P,BAT,2,Pin_2*%
%TO.N,Net-(J2-Pin_2)*%
X132000000Y-55000000D03*
%TD*%
D10*
%TO.P,SPDT,1,Pin_1*%
%TO.N,Net-(J1-Pin_1)*%
X149750000Y-66330000D03*
D11*
%TO.P,SPDT,2,Pin_2*%
%TO.N,Net-(CLK1-Vdd)*%
X149750000Y-63790000D03*
%TO.P,SPDT,3,Pin_3*%
%TO.N,Net-(J1-Pin_3)*%
X149750000Y-61250000D03*
%TD*%
D12*
%TO.P,CLK,1,NC*%
%TO.N,unconnected-(CLK1-NC-Pad1)*%
X142600000Y-68000000D03*
D13*
%TO.P,CLK,2,OE*%
%TO.N,unconnected-(CLK1-OE-Pad2)*%
X142600000Y-69250000D03*
%TO.P,CLK,3,GND*%
%TO.N,Net-(CLK1-GND)*%
X142600000Y-70500000D03*
%TO.P,CLK,4,CLK+*%
%TO.N,Net-(CLK1-CLK+)*%
X144500000Y-70500000D03*
%TO.P,CLK,5,CLK-*%
%TO.N,unconnected-(CLK1-CLK--Pad5)*%
X144500000Y-69250000D03*
%TO.P,CLK,6,Vdd*%
%TO.N,Net-(CLK1-Vdd)*%
X144500000Y-68000000D03*
%TD*%
D14*
%TO.P,flipflop,1,1*%
%TO.N,Net-(J3-Pin_1)*%
X132444400Y-60499998D03*
%TO.P,flipflop,2,2*%
%TO.N,Net-(TR1-Pad1)*%
X132444400Y-60999999D03*
%TO.P,flipflop,3,3*%
X132444400Y-61499999D03*
%TO.P,flipflop,4,4*%
%TO.N,Net-(CLK1-GND)*%
X132444400Y-62000000D03*
%TO.P,flipflop,5,5*%
%TO.N,Net-(TR2-Pad1)*%
X135500000Y-62000000D03*
%TO.P,flipflop,6,6*%
%TO.N,Net-(J2-Pin_2)*%
X135500000Y-61499999D03*
%TO.P,flipflop,7,7*%
X135500000Y-60999999D03*
%TO.P,flipflop,8,8*%
X135500000Y-60499998D03*
%TD*%
D15*
%TO.P,div1,1,X1*%
%TO.N,Net-(CLK1-CLK+)*%
X133100000Y-76500000D03*
%TO.P,div1,2,X2*%
%TO.N,unconnected-(div1-X2-Pad2)*%
X133100000Y-77150000D03*
%TO.P,div1,3,GND*%
%TO.N,Net-(CLK1-GND)*%
X133100000Y-77800000D03*
%TO.P,div1,4,Q*%
%TO.N,Net-(J5-Pin_2)*%
X135000000Y-77800000D03*
%TO.P,div1,5,VCC*%
%TO.N,Net-(CLK1-Vdd)*%
X135000000Y-76500000D03*
%TD*%
%TO.P,div3,1,X1*%
%TO.N,Net-(J4-Pin_1)*%
X133050000Y-66000000D03*
%TO.P,div3,2,X2*%
%TO.N,unconnected-(div3-X2-Pad2)*%
X133050000Y-66650000D03*
%TO.P,div3,3,GND*%
%TO.N,Net-(CLK1-GND)*%
X133050000Y-67300000D03*
%TO.P,div3,4,Q*%
%TO.N,Net-(J3-Pin_2)*%
X134950000Y-67300000D03*
%TO.P,div3,5,VCC*%
%TO.N,Net-(CLK1-Vdd)*%
X134950000Y-66000000D03*
%TD*%
%TO.P,div2,1,X1*%
%TO.N,Net-(J5-Pin_1)*%
X133100000Y-71000000D03*
%TO.P,div2,2,X2*%
%TO.N,unconnected-(div2-X2-Pad2)*%
X133100000Y-71650000D03*
%TO.P,div2,3,GND*%
%TO.N,Net-(CLK1-GND)*%
X133100000Y-72300000D03*
%TO.P,div2,4,Q*%
%TO.N,Net-(J4-Pin_2)*%
X135000000Y-72300000D03*
%TO.P,div2,5,VCC*%
%TO.N,Net-(CLK1-Vdd)*%
X135000000Y-71000000D03*
%TD*%
D16*
%TO.P,TR2,1*%
%TO.N,Net-(TR2-Pad1)*%
X142931101Y-63566800D03*
%TO.P,TR2,2*%
%TO.N,Net-(J1-Pin_1)*%
X144836101Y-63566800D03*
%TO.P,TR2,3*%
%TO.N,Net-(J2-Pin_2)*%
X143883601Y-61433200D03*
%TD*%
%TO.P,TR1,1*%
%TO.N,Net-(TR1-Pad1)*%
X142845000Y-57250000D03*
%TO.P,TR1,2*%
%TO.N,Net-(J1-Pin_3)*%
X144750000Y-57250000D03*
%TO.P,TR1,3*%
%TO.N,Net-(J2-Pin_2)*%
X143797500Y-55116400D03*
%TD*%
D17*
%TO.P,R1,1*%
%TO.N,Net-(CLK1-GND)*%
X132460000Y-82500000D03*
D18*
%TO.P,R1,2*%
%TO.N,Net-(D1-K)*%
X135000000Y-82500000D03*
%TD*%
D19*
%TO.P,LED,1,K*%
%TO.N,Net-(D1-K)*%
X142250000Y-73900000D03*
D20*
%TO.P,LED,2,A*%
%TO.N,Net-(D1-A)*%
X144790000Y-73900000D03*
%TD*%
D21*
%TO.N,Net-(TR1-Pad1)*%
X136250000Y-57750000D03*
X133500000Y-57750000D03*
%TO.N,Net-(J3-Pin_1)*%
X128500000Y-58750000D03*
X130750000Y-58750000D03*
%TO.N,Net-(J4-Pin_1)*%
X128500000Y-65250000D03*
X130250000Y-65250000D03*
%TO.N,Net-(J3-Pin_2)*%
X137250000Y-67250000D03*
X128500000Y-63750000D03*
%TO.N,Net-(J5-Pin_1)*%
X128250000Y-73250000D03*
X131000000Y-70500000D03*
%TO.N,Net-(J4-Pin_2)*%
X128500000Y-69000000D03*
X138750000Y-70250000D03*
%TO.N,Net-(J5-Pin_2)*%
X128500000Y-80750000D03*
X136500000Y-77000000D03*
%TO.N,Net-(CLK1-CLK+)*%
X131250000Y-75250000D03*
X147000000Y-70500000D03*
%TD*%
D22*
%TO.N,Net-(TR1-Pad1)*%
X137750000Y-57250000D02*
X142845000Y-57250000D01*
X130000000Y-59500000D02*
X130000000Y-58250000D01*
X132444400Y-60999999D02*
X131499999Y-60999999D01*
X131499999Y-60999999D02*
X130000000Y-59500000D01*
X130500000Y-57750000D02*
X133500000Y-57750000D01*
X130000000Y-58250000D02*
X130500000Y-57750000D01*
X137250000Y-57750000D02*
X137750000Y-57250000D01*
X136250000Y-57750000D02*
X137250000Y-57750000D01*
X132444400Y-61499999D02*
X132444400Y-60999999D01*
%TO.N,Net-(J3-Pin_1)*%
X132444400Y-60499998D02*
X130750000Y-58805598D01*
X130750000Y-58805598D02*
X130750000Y-58750000D01*
X128500000Y-58750000D02*
X127250000Y-60000000D01*
X127250000Y-60000000D02*
X125500000Y-60000000D01*
%TO.N,Net-(J3-Pin_2)*%
X127290000Y-62540000D02*
X125500000Y-62540000D01*
X128500000Y-63750000D02*
X127290000Y-62540000D01*
%TO.N,Net-(J4-Pin_1)*%
X133050000Y-66000000D02*
X133293456Y-66000000D01*
X133293456Y-66000000D02*
X131000000Y-66000000D01*
X131000000Y-66000000D02*
X130250000Y-65250000D01*
X128500000Y-65250000D02*
X128500000Y-66000000D01*
X128500000Y-66000000D02*
X125500000Y-69000000D01*
%TO.N,Net-(J3-Pin_2)*%
X134950000Y-67300000D02*
X137200000Y-67300000D01*
X137200000Y-67300000D02*
X137250000Y-67250000D01*
%TO.N,Net-(J5-Pin_1)*%
X128250000Y-74000000D02*
X125500000Y-76750000D01*
X133100000Y-71000000D02*
X131500000Y-71000000D01*
X131500000Y-71000000D02*
X131000000Y-70500000D01*
X125500000Y-76750000D02*
X125500000Y-78000000D01*
X128250000Y-73250000D02*
X128250000Y-74000000D01*
%TO.N,Net-(J4-Pin_2)*%
X135000000Y-72300000D02*
X136700000Y-72300000D01*
X136700000Y-72300000D02*
X138750000Y-70250000D01*
X128040000Y-69000000D02*
X125500000Y-71540000D01*
X128500000Y-69000000D02*
X128040000Y-69000000D01*
%TO.N,Net-(J5-Pin_2)*%
X128500000Y-80750000D02*
X128290000Y-80540000D01*
X135000000Y-77800000D02*
X135700000Y-77800000D01*
X135700000Y-77800000D02*
X136500000Y-77000000D01*
X128290000Y-80540000D02*
X125500000Y-80540000D01*
%TO.N,Net-(CLK1-CLK+)*%
X132500000Y-76500000D02*
X133100000Y-76500000D01*
X131250000Y-75250000D02*
X132500000Y-76500000D01*
X144500000Y-70500000D02*
X147000000Y-70500000D01*
%TO.N,Net-(D1-K)*%
X135000000Y-82500000D02*
X135000000Y-81150000D01*
X135000000Y-81150000D02*
X142250000Y-73900000D01*
%TO.N,Net-(CLK1-GND)*%
X129460000Y-74484999D02*
X129460000Y-78250000D01*
X129460000Y-78250000D02*
X129460000Y-79500000D01*
X135500000Y-79500000D02*
X130710000Y-79500000D01*
X130710000Y-79500000D02*
X129460000Y-78250000D01*
X129460000Y-79500000D02*
X132460000Y-82500000D01*
X135500000Y-79500000D02*
X137250000Y-77750000D01*
X137250000Y-77750000D02*
X137250000Y-75250000D01*
X137250000Y-75250000D02*
X142000000Y-70500000D01*
X142000000Y-70500000D02*
X142600000Y-70500000D01*
X129460000Y-55000000D02*
X129460000Y-61250000D01*
X129460000Y-61250000D02*
X129460000Y-65750000D01*
X132444400Y-62000000D02*
X130210000Y-62000000D01*
X130210000Y-62000000D02*
X129460000Y-61250000D01*
X129460000Y-65750000D02*
X129460000Y-70750000D01*
X129460000Y-70750000D02*
X129460000Y-74484999D01*
X133100000Y-72300000D02*
X131010000Y-72300000D01*
X131010000Y-72300000D02*
X129460000Y-70750000D01*
X133050000Y-67300000D02*
X131010000Y-67300000D01*
X131010000Y-67300000D02*
X129460000Y-65750000D01*
X132775001Y-77800000D02*
X133100000Y-77800000D01*
%TO.N,Net-(CLK1-Vdd)*%
X139500000Y-72000000D02*
X139500000Y-68000000D01*
X139500000Y-68000000D02*
X139500000Y-67000000D01*
X135000000Y-71000000D02*
X136500000Y-71000000D01*
X136500000Y-71000000D02*
X139500000Y-68000000D01*
X135000000Y-76500000D02*
X139500000Y-72000000D01*
X145000000Y-66000000D02*
X140500000Y-66000000D01*
X139500000Y-67000000D02*
X140500000Y-66000000D01*
X147000000Y-68000000D02*
X145000000Y-66000000D01*
X149525000Y-74750000D02*
X149525000Y-70525000D01*
X149525000Y-70525000D02*
X147000000Y-68000000D01*
%TO.N,Net-(D1-A)*%
X144790000Y-73900000D02*
X146135000Y-73900000D01*
X146135000Y-73900000D02*
X149525000Y-77290000D01*
%TO.N,Net-(CLK1-Vdd)*%
X149750000Y-63790000D02*
X152000000Y-66040000D01*
X152000000Y-66040000D02*
X152000000Y-68500000D01*
X152000000Y-68500000D02*
X151250000Y-69250000D01*
X151250000Y-69250000D02*
X148250000Y-69250000D01*
X148250000Y-69250000D02*
X147000000Y-68000000D01*
X147000000Y-68000000D02*
X144500000Y-68000000D01*
%TO.N,Net-(J1-Pin_1)*%
X144836101Y-63566800D02*
X146986800Y-63566800D01*
X146986800Y-63566800D02*
X149750000Y-66330000D01*
%TO.N,Net-(J1-Pin_3)*%
X144750000Y-57250000D02*
X145000000Y-57500000D01*
X145000000Y-57500000D02*
X146000000Y-57500000D01*
X146000000Y-57500000D02*
X149750000Y-61250000D01*
%TO.N,Net-(TR2-Pad1)*%
X135500000Y-62000000D02*
X137066800Y-63566800D01*
X137066800Y-63566800D02*
X142931101Y-63566800D01*
%TO.N,Net-(J2-Pin_2)*%
X132000000Y-55000000D02*
X143681100Y-55000000D01*
X143681100Y-55000000D02*
X143797500Y-55116400D01*
X135500000Y-58500000D02*
X138433200Y-61433200D01*
X138433200Y-61433200D02*
X143883601Y-61433200D01*
X135500000Y-60999999D02*
X135500000Y-61499999D01*
X135500000Y-60499998D02*
X135500000Y-60999999D01*
X132000000Y-55000000D02*
X135500000Y-58500000D01*
X135500000Y-58500000D02*
X135500000Y-60499998D01*
%TO.N,Net-(CLK1-Vdd)*%
X140500000Y-66000000D02*
X134950000Y-66000000D01*
%TO.N,Net-(CLK1-GND)*%
X129460000Y-74484999D02*
X132775001Y-77800000D01*
%TD*%
M02*
